<?xml version="1.0" encoding="UTF-8" ?>
<!DOCTYPE svg PUBLIC "-//W3C//DTD SVG 1.1//EN" "http://www.w3.org/Graphics/SVG/1.1/DTD/svg11.dtd">
<svg width="1000pt" height="1000pt" viewBox="0 0 1000 1000" version="1.1" xmlns="http://www.w3.org/2000/svg">
<g id="#cecbc0ff">
<path fill="#cecbc0" opacity="1.00" d=" M 244.79 85.71 C 362.68 10.72 514.13 -7.34 647.02 34.95 C 767.33 72.12 871.32 158.37 930.73 269.32 C 980.93 360.88 999.00 468.90 983.95 572.00 C 967.20 691.33 903.30 802.93 809.87 878.86 C 723.56 949.98 611.96 990.36 500.00 988.72 C 427.48 989.61 355.07 972.60 289.76 941.26 C 181.77 889.60 94.10 796.87 48.99 685.96 C -13.19 536.87 5.17 356.66 98.79 224.65 C 94.96 233.42 88.91 240.93 84.16 249.18 C 13.00 365.25 -4.58 511.87 35.02 641.91 C 61.08 729.24 112.68 808.81 181.69 868.30 C 269.87 945.90 387.49 989.43 505.00 987.02 C 637.21 987.79 767.95 929.51 857.33 832.35 C 935.66 749.14 982.38 637.19 986.87 523.05 C 991.15 433.50 970.51 342.74 926.52 264.54 C 876.14 173.22 795.28 99.40 700.17 56.76 C 560.15 -6.60 390.11 1.52 257.41 79.35 C 253.42 81.88 249.26 84.15 244.79 85.71 Z" />
<path fill="#cecbc0" opacity="1.00" d=" M 122.69 192.94 C 136.64 174.71 152.53 157.70 169.92 142.70 C 153.81 159.06 138.55 176.35 122.69 192.94 Z" />
<path fill="#cecbc0" opacity="1.00" d=" M 476.92 569.04 C 469.14 559.76 478.51 544.63 489.97 545.73 C 504.07 546.92 517.70 553.22 527.54 563.45 C 534.63 570.59 544.87 578.00 544.03 589.24 C 538.00 589.13 533.81 584.63 529.76 580.78 C 529.45 588.11 530.14 598.75 521.78 601.86 C 509.81 601.34 523.04 580.10 510.26 579.24 C 482.18 597.01 465.42 637.27 482.87 668.07 C 474.26 660.14 476.08 647.08 469.16 638.21 C 464.48 645.13 469.63 652.85 471.46 659.80 C 474.28 665.70 470.80 673.70 476.97 677.99 C 471.36 673.70 464.07 672.64 458.30 668.70 C 453.67 664.38 456.87 657.64 459.80 653.32 C 463.39 657.94 466.39 663.01 470.28 667.40 C 470.74 657.37 462.75 648.58 465.59 638.43 C 470.74 623.06 461.58 606.01 470.27 591.32 C 482.43 587.33 494.96 580.88 503.48 571.45 C 494.78 568.73 483.38 577.82 476.92 569.04 M 482.37 566.11 C 488.19 572.07 497.07 565.25 503.92 569.10 C 514.58 572.34 521.12 582.98 519.03 593.99 C 519.16 602.89 528.36 594.18 526.72 589.06 C 529.74 567.40 497.24 548.60 482.37 566.11 M 472.78 629.31 C 477.86 610.05 489.76 594.01 502.22 579.06 C 482.82 585.23 460.68 608.63 472.78 629.31 Z" />
<path fill="#cecbc0" opacity="1.00" d=" M 512.80 657.97 C 510.90 646.09 522.62 637.05 533.08 635.14 C 546.86 635.92 562.65 638.73 571.09 650.94 C 557.37 637.62 528.64 635.96 520.43 656.01 C 526.24 669.84 535.35 682.42 541.23 696.35 C 527.64 698.76 510.33 700.48 503.92 685.05 C 505.96 686.68 508.19 688.06 510.42 689.44 C 511.47 678.96 513.88 668.56 512.80 657.97 Z" />
<path fill="#cecbc0" opacity="1.00" d=" M 537.17 653.47 C 542.34 655.61 547.28 661.27 548.62 666.73 C 543.88 669.53 525.79 657.26 537.17 653.47 Z" />
<path fill="#cecbc0" opacity="1.00" d=" M 565.19 700.05 C 569.67 698.51 576.08 702.53 572.39 707.37 C 567.09 711.19 563.05 705.06 565.19 700.05 Z" />
</g>
<g id="#97832fff">
<path fill="#97832f" opacity="1.00" d=" M 257.41 79.35 C 390.11 1.52 560.15 -6.60 700.17 56.76 C 795.28 99.40 876.14 173.22 926.52 264.54 C 970.51 342.74 991.15 433.50 986.87 523.05 C 982.38 637.19 935.66 749.14 857.33 832.35 C 767.95 929.51 637.21 987.79 505.00 987.02 C 387.49 989.43 269.87 945.90 181.69 868.30 C 112.68 808.81 61.08 729.24 35.02 641.91 C -4.58 511.87 13.00 365.25 84.16 249.18 C 88.91 240.93 94.96 233.42 98.79 224.65 C 105.67 213.39 113.69 202.59 122.69 192.94 C 138.55 176.35 153.81 159.06 169.92 142.70 C 192.29 120.78 217.69 101.41 244.79 85.71 C 249.26 84.15 253.42 81.88 257.41 79.35 M 500.44 28.70 C 378.57 27.65 257.60 77.44 170.80 162.80 C 92.31 238.82 41.73 343.04 30.88 451.81 C 20.88 547.06 40.53 645.22 86.93 729.06 C 117.74 784.65 160.26 833.52 209.94 873.05 C 286.65 934.08 383.28 968.71 481.03 973.03 C 623.10 979.84 766.34 917.86 858.56 809.59 C 940.53 715.66 982.49 588.26 971.91 463.99 C 963.00 340.33 902.20 221.45 807.60 141.43 C 723.04 68.76 612.05 27.46 500.44 28.70 Z" />
</g>
<g id="#776825ff">
<path fill="#776825" opacity="1.00" d=" M 500.44 28.70 C 612.05 27.46 723.04 68.76 807.60 141.43 C 902.20 221.45 963.00 340.33 971.91 463.99 C 982.49 588.26 940.53 715.66 858.56 809.59 C 766.34 917.86 623.10 979.84 481.03 973.03 C 383.28 968.71 286.65 934.08 209.94 873.05 C 160.26 833.52 117.74 784.65 86.93 729.06 C 40.53 645.22 20.88 547.06 30.88 451.81 C 41.73 343.04 92.31 238.82 170.80 162.80 C 257.60 77.44 378.57 27.65 500.44 28.70 M 437.91 40.31 C 439.59 40.71 441.29 41.06 442.99 41.42 C 424.50 43.32 406.55 49.43 388.04 50.32 C 389.31 50.71 390.59 51.11 391.87 51.52 C 285.03 78.12 185.28 141.30 123.11 233.13 C 122.17 233.76 121.25 234.44 120.36 235.16 C 118.37 238.37 116.25 241.51 114.17 244.66 C 113.13 246.74 112.07 248.81 111.02 250.89 C 91.55 282.68 74.55 316.18 62.38 351.48 C 47.04 389.78 41.51 431.36 35.95 471.95 C 36.29 491.31 36.60 510.69 35.82 530.05 C 41.22 569.90 46.93 610.46 61.35 648.27 C 65.83 641.55 71.58 635.78 78.26 631.26 C 84.95 626.22 83.16 616.48 88.56 610.63 C 88.78 616.84 87.18 623.00 88.14 629.20 C 77.09 635.21 71.53 647.61 64.18 656.83 C 80.44 710.71 109.88 760.14 144.96 803.99 C 205.83 875.12 290.11 924.86 380.07 949.18 C 409.86 956.29 440.01 963.81 470.75 964.04 C 488.99 967.31 507.82 968.33 526.12 964.91 C 589.33 960.85 653.64 945.09 709.20 914.12 C 754.93 890.92 797.31 860.83 833.56 824.55 C 898.79 755.05 942.81 665.98 958.62 572.08 C 958.97 573.41 959.34 574.75 959.73 576.09 C 958.26 558.48 965.09 541.69 963.52 524.08 C 968.02 500.08 961.96 476.01 963.66 451.87 C 963.34 453.54 963.03 455.22 962.73 456.91 C 959.69 446.89 959.55 436.29 959.73 425.91 C 959.32 427.25 958.92 428.59 958.55 429.94 C 956.56 423.54 956.26 416.79 956.78 410.14 C 956.28 411.03 955.79 411.91 955.31 412.81 C 953.03 405.78 953.21 398.32 951.81 391.12 C 951.31 392.08 950.81 393.05 950.33 394.02 C 950.60 388.59 949.38 383.31 947.03 378.44 C 927.83 309.49 892.91 245.01 845.93 191.06 C 792.20 131.15 721.74 86.86 645.46 61.70 C 645.85 61.28 646.23 60.87 646.63 60.46 C 629.64 58.65 614.22 49.72 597.07 48.74 C 598.35 48.25 599.64 47.77 600.94 47.29 C 587.12 47.05 573.63 43.59 560.08 41.32 C 561.75 40.98 563.44 40.67 565.13 40.34 C 542.91 41.50 521.21 35.22 499.00 36.66 C 478.46 35.25 458.48 41.92 437.91 40.31 Z" />
</g>
<g id="#ffffffff">
<path fill="#ffffff" opacity="1.00" d=" M 437.91 40.31 C 458.48 41.92 478.46 35.25 499.00 36.66 C 521.21 35.22 542.91 41.50 565.13 40.34 C 563.44 40.67 561.75 40.98 560.08 41.32 C 573.63 43.59 587.12 47.05 600.94 47.29 C 599.64 47.77 598.35 48.25 597.07 48.74 C 614.22 49.72 629.64 58.65 646.63 60.46 C 646.23 60.87 645.85 61.28 645.46 61.70 C 721.74 86.86 792.20 131.15 845.93 191.06 C 892.91 245.01 927.83 309.49 947.03 378.44 C 949.38 383.31 950.60 388.59 950.33 394.02 C 950.81 393.05 951.31 392.08 951.81 391.12 C 953.21 398.32 953.03 405.78 955.31 412.81 C 955.79 411.91 956.28 411.03 956.78 410.14 C 956.26 416.79 956.56 423.54 958.55 429.94 C 958.92 428.59 959.32 427.25 959.73 425.91 C 959.55 436.29 959.69 446.89 962.73 456.91 C 963.03 455.22 963.34 453.54 963.66 451.87 C 961.96 476.01 968.02 500.08 963.52 524.08 C 965.09 541.69 958.26 558.48 959.73 576.09 C 959.34 574.75 958.97 573.41 958.62 572.08 C 942.81 665.98 898.79 755.05 833.56 824.55 C 797.31 860.83 754.93 890.92 709.20 914.12 C 607.52 964.10 488.23 978.84 378.87 947.04 C 293.91 923.48 214.70 876.45 155.79 810.56 C 172.47 809.82 189.42 812.42 205.81 807.85 C 284.21 796.31 363.98 805.52 440.73 823.19 C 459.39 828.07 478.70 826.43 497.75 826.39 C 505.29 827.33 512.87 827.72 520.45 828.18 C 522.28 830.83 524.61 833.10 527.39 834.77 C 528.90 832.52 530.66 830.45 532.19 828.22 C 548.74 829.14 563.06 838.98 580.00 836.69 C 616.30 836.76 652.62 836.70 688.86 834.61 C 693.07 834.33 697.03 832.74 700.75 830.82 C 689.07 827.53 676.79 829.88 664.85 829.04 C 652.32 828.89 639.78 828.92 627.26 829.22 C 606.55 828.13 585.59 831.19 565.05 828.04 C 572.92 821.91 583.48 823.99 592.70 824.32 C 616.50 826.33 640.21 822.19 664.00 822.67 C 692.61 822.10 723.27 826.69 750.52 817.36 C 717.75 813.37 684.57 814.49 651.68 816.34 C 633.39 813.65 614.99 816.67 596.65 817.13 C 598.63 815.23 600.59 813.31 602.71 811.57 C 633.48 800.44 658.57 777.62 687.40 762.36 C 711.19 748.37 715.47 718.62 733.84 699.89 C 739.71 681.68 744.08 661.96 757.14 647.14 C 777.71 614.67 818.14 605.95 846.26 582.27 C 855.40 576.37 849.26 561.53 839.44 560.53 C 820.92 557.02 803.63 549.25 785.12 545.81 C 779.67 543.66 774.12 540.07 768.12 542.77 C 750.50 511.23 749.91 473.74 733.09 441.86 C 727.25 429.54 710.93 417.35 719.59 402.62 C 730.40 376.61 748.84 355.27 761.07 330.17 C 764.64 321.34 755.23 316.59 749.05 312.92 C 740.19 305.45 728.23 307.04 717.54 305.63 C 693.63 305.96 668.89 308.77 647.66 320.66 C 641.35 323.37 634.99 329.13 627.76 327.28 C 588.14 298.10 536.94 294.45 490.00 285.93 C 458.95 275.24 425.75 281.17 393.76 278.27 C 369.49 273.17 352.38 251.63 327.86 247.19 C 297.93 241.18 267.61 236.17 236.99 236.97 C 199.12 233.76 161.11 233.25 123.11 233.13 C 185.28 141.30 285.03 78.12 391.87 51.52 C 390.59 51.11 389.31 50.71 388.04 50.32 C 406.55 49.43 424.50 43.32 442.99 41.42 C 441.29 41.06 439.59 40.71 437.91 40.31 Z" />
<path fill="#ffffff" opacity="1.00" d=" M 287.18 373.08 C 298.58 366.03 310.25 359.33 322.03 353.00 C 312.93 362.70 303.19 371.80 294.09 381.51 C 281.38 389.69 289.60 405.65 282.82 416.79 C 279.91 422.48 280.56 430.16 275.23 434.40 C 273.12 423.98 275.27 413.24 273.51 402.74 C 270.38 390.02 283.16 383.41 287.18 373.08 Z" />
<path fill="#ffffff" opacity="1.00" d=" M 443.30 366.24 C 465.43 357.69 489.78 359.33 512.58 364.35 C 525.61 365.22 539.90 367.92 549.04 378.02 C 552.65 389.52 540.02 400.09 545.32 411.77 C 553.42 429.51 568.24 444.53 586.84 451.15 C 596.80 456.93 605.77 464.38 616.79 468.27 C 632.25 479.71 636.21 500.05 641.14 517.54 C 638.31 517.11 635.46 516.89 632.62 516.59 C 634.64 520.33 637.91 523.49 638.66 527.83 C 632.68 531.04 627.22 541.40 619.56 536.44 C 613.76 531.83 605.25 528.17 604.20 519.95 C 601.47 492.28 573.95 473.00 547.97 470.11 C 547.56 483.65 533.00 488.09 525.33 496.92 C 524.06 495.35 522.82 493.76 521.56 492.21 C 512.59 498.71 511.49 511.31 514.87 521.12 C 518.51 531.19 517.41 543.35 525.90 551.18 C 526.73 551.08 528.38 550.89 529.21 550.79 C 527.55 536.87 520.01 521.16 529.49 508.38 C 525.66 531.74 539.11 553.84 559.33 564.77 C 567.63 567.95 567.29 578.16 571.15 584.86 C 576.25 596.14 590.97 604.14 602.64 597.70 C 609.39 594.34 617.14 586.28 624.27 593.67 C 618.64 599.70 614.22 606.65 609.92 613.66 C 606.59 610.11 603.14 606.58 598.82 604.24 C 597.78 606.71 596.68 609.16 595.63 611.62 C 589.52 611.05 584.67 607.03 578.96 605.25 C 581.13 612.81 588.14 619.19 586.21 627.60 C 582.31 623.54 579.14 618.86 575.34 614.72 C 574.76 615.10 573.61 615.86 573.03 616.24 C 574.77 624.62 578.86 632.23 580.97 640.50 C 578.57 640.53 576.16 640.56 573.77 640.60 C 575.35 648.43 577.07 658.32 585.62 661.43 C 593.78 664.60 591.87 677.07 600.06 679.79 C 607.63 677.18 614.11 669.37 610.99 660.97 C 612.85 659.86 614.73 658.77 616.61 657.69 C 615.12 653.88 613.75 650.03 612.58 646.11 C 613.68 646.43 614.79 646.78 615.89 647.15 C 617.27 647.88 618.64 648.62 620.05 649.34 C 624.90 651.70 630.05 653.33 635.11 655.17 C 631.68 658.75 628.26 662.34 625.29 666.32 C 624.19 667.70 623.20 669.15 622.24 670.62 C 614.04 679.35 613.83 692.67 604.77 700.77 C 596.33 711.40 585.49 719.62 574.76 727.74 C 566.73 732.22 559.96 722.95 555.68 717.30 C 562.74 716.93 570.34 716.92 576.18 712.32 C 584.08 708.47 591.10 701.66 588.92 692.03 C 591.36 675.77 581.02 662.44 571.09 650.94 C 562.65 638.73 546.86 635.92 533.08 635.14 C 522.62 637.05 510.90 646.09 512.80 657.97 C 513.88 668.56 511.47 678.96 510.42 689.44 C 508.19 688.06 505.96 686.68 503.92 685.05 C 497.09 679.13 488.13 675.87 482.87 668.07 C 465.42 637.27 482.18 597.01 510.26 579.24 C 523.04 580.10 509.81 601.34 521.78 601.86 C 530.14 598.75 529.45 588.11 529.76 580.78 C 533.81 584.63 538.00 589.13 544.03 589.24 C 544.87 578.00 534.63 570.59 527.54 563.45 C 517.70 553.22 504.07 546.92 489.97 545.73 C 478.51 544.63 469.14 559.76 476.92 569.04 C 483.38 577.82 494.78 568.73 503.48 571.45 C 494.96 580.88 482.43 587.33 470.27 591.32 C 461.58 606.01 470.74 623.06 465.59 638.43 C 462.75 648.58 470.74 657.37 470.28 667.40 C 466.39 663.01 463.39 657.94 459.80 653.32 C 456.87 657.64 453.67 664.38 458.30 668.70 C 464.07 672.64 471.36 673.70 476.97 677.99 C 492.94 690.16 492.07 713.49 508.86 725.13 C 513.96 729.80 522.79 735.65 518.72 743.65 C 511.72 747.58 502.46 746.45 494.76 745.22 C 489.74 740.62 486.49 734.26 481.05 729.93 C 470.07 719.01 477.76 701.84 471.74 689.21 C 465.41 686.10 461.58 695.68 457.86 699.54 C 444.18 695.81 436.74 709.33 431.07 719.08 C 420.25 727.27 404.79 727.18 391.89 725.26 C 378.74 715.66 376.98 697.87 367.53 685.49 C 363.95 680.96 357.41 679.68 354.57 674.51 C 351.29 666.91 355.68 658.55 353.29 650.80 C 349.38 639.36 339.76 630.47 336.92 618.66 C 337.81 611.71 337.01 604.86 333.35 598.76 C 332.63 586.50 329.33 574.50 330.43 562.15 C 327.71 538.70 336.84 515.61 333.58 492.19 C 334.73 476.10 338.38 459.16 347.80 445.82 C 358.13 442.36 369.21 437.32 374.33 426.89 C 369.29 427.89 364.55 429.88 359.87 431.93 C 382.83 404.64 413.10 384.67 443.30 366.24 Z" />
<path fill="#ffffff" opacity="1.00" d=" M 128.00 404.11 C 133.00 388.39 148.82 381.67 161.92 374.03 C 150.18 386.26 137.17 397.20 126.22 410.20 C 126.20 409.70 126.18 408.71 126.17 408.21 C 126.78 406.84 127.40 405.47 128.00 404.11 Z" />
<path fill="#ffffff" opacity="1.00" d=" M 159.93 386.95 C 178.36 388.38 195.21 368.47 212.03 383.78 C 196.90 378.17 182.08 385.99 169.77 394.36 C 174.55 398.70 180.79 395.99 185.99 394.14 C 205.89 387.80 226.50 385.41 247.08 382.93 C 249.95 382.46 252.90 382.58 255.70 383.41 C 246.36 398.05 237.43 415.63 241.14 433.47 C 244.90 430.92 248.72 428.44 252.84 426.52 C 248.80 436.67 244.60 446.81 243.91 457.89 C 237.62 471.92 237.70 487.71 237.68 502.80 C 236.50 525.90 240.03 549.43 249.33 570.70 C 251.76 569.34 254.22 568.03 256.68 566.73 C 258.05 574.86 259.17 583.04 259.98 591.25 C 259.58 602.76 261.90 614.00 263.89 625.24 C 262.07 657.93 279.95 687.11 290.91 716.94 C 293.63 725.14 299.87 732.10 300.10 741.06 C 299.50 749.09 309.73 750.58 311.39 757.88 C 281.10 760.93 251.09 768.66 220.77 769.57 C 209.77 745.28 199.97 720.19 185.06 697.93 C 174.23 685.97 156.49 683.86 144.52 673.43 C 145.29 672.61 146.08 671.82 146.89 671.05 C 179.76 648.10 183.69 601.81 177.74 565.34 C 175.61 525.85 165.23 487.37 153.01 449.97 C 150.59 442.15 153.09 433.68 150.24 425.98 C 144.59 420.29 143.55 413.43 146.20 406.01 C 142.37 407.60 138.94 409.99 135.29 411.94 C 137.84 399.18 151.78 395.31 159.93 386.95 Z" />
<path fill="#ffffff" opacity="1.00" d=" M 81.08 433.97 C 77.60 422.11 86.78 414.46 96.83 410.98 C 95.88 412.98 94.94 414.98 93.86 416.92 C 90.37 421.96 87.16 427.25 85.17 433.08 C 83.81 433.37 82.44 433.67 81.08 433.97 Z" />
<path fill="#ffffff" opacity="1.00" d=" M 104.67 429.53 C 109.26 441.09 109.68 454.32 103.39 465.33 C 94.95 505.28 116.72 545.10 108.54 585.02 C 108.23 600.16 105.94 615.35 104.23 630.20 C 89.51 647.02 88.33 669.76 85.38 690.54 C 90.75 701.86 104.06 694.48 112.43 691.37 C 112.42 692.69 112.42 694.02 112.42 695.36 C 104.99 702.39 99.44 711.03 93.78 719.47 C 83.17 702.29 76.13 683.22 68.21 664.73 C 64.45 657.58 72.13 651.88 75.03 646.01 C 80.66 636.97 93.51 632.11 92.90 619.92 C 93.69 582.53 93.55 545.06 92.21 507.68 C 88.53 487.08 87.46 466.37 89.48 445.70 C 93.87 439.70 99.43 434.74 104.67 429.53 Z" />
<path fill="#ffffff" opacity="1.00" d=" M 546.81 540.23 C 565.47 545.29 576.20 529.05 585.77 516.37 C 587.66 520.26 588.85 525.07 585.56 528.62 C 577.44 539.60 567.32 557.35 550.95 549.17 C 550.14 548.54 549.45 547.83 548.87 547.01 C 548.08 544.78 547.45 542.50 546.81 540.23 Z" />
<path fill="#ffffff" opacity="1.00" d=" M 63.83 608.48 C 67.81 610.27 71.29 612.95 74.24 616.15 C 76.24 615.88 78.23 615.57 80.22 615.30 C 80.57 618.15 80.93 621.02 81.06 623.91 C 75.76 629.71 64.08 648.12 57.75 635.03 C 58.12 633.90 58.48 632.79 58.85 631.67 C 65.75 634.20 74.59 629.42 73.42 621.50 C 70.16 617.03 61.11 615.77 63.83 608.48 Z" />
<path fill="#ffffff" opacity="1.00" d=" M 636.97 689.20 C 648.49 688.74 661.69 691.73 669.69 680.75 C 672.60 697.56 644.36 701.53 636.97 689.20 Z" />
<path fill="#ffffff" opacity="1.00" d=" M 106.22 740.62 C 133.41 751.42 160.21 766.74 179.90 788.08 C 193.97 791.26 208.48 785.14 222.67 787.97 C 219.74 790.24 216.49 792.17 212.85 793.04 C 189.42 792.88 163.72 809.64 142.51 792.45 C 131.45 780.79 122.57 766.99 113.13 753.93 C 110.63 749.60 108.44 745.10 106.22 740.62 Z" />
</g>
<g id="#bfb2a1ff">
<path fill="#bfb2a1" opacity="1.00" d=" M 120.36 235.16 C 121.25 234.44 122.17 233.76 123.11 233.13 C 161.11 233.25 199.12 233.76 236.99 236.97 C 267.61 236.17 297.93 241.18 327.86 247.19 C 352.38 251.63 369.49 273.17 393.76 278.27 C 425.75 281.17 458.95 275.24 490.00 285.93 C 536.94 294.45 588.14 298.10 627.76 327.28 C 634.99 329.13 641.35 323.37 647.66 320.66 C 668.89 308.77 693.63 305.96 717.54 305.63 C 728.23 307.04 740.19 305.45 749.05 312.92 C 755.23 316.59 764.64 321.34 761.07 330.17 C 748.84 355.27 730.40 376.61 719.59 402.62 C 710.93 417.35 727.25 429.54 733.09 441.86 C 749.91 473.74 750.50 511.23 768.12 542.77 C 774.12 540.07 779.67 543.66 785.12 545.81 C 803.63 549.25 820.92 557.02 839.44 560.53 C 849.26 561.53 855.40 576.37 846.26 582.27 C 818.14 605.95 777.71 614.67 757.14 647.14 C 744.08 661.96 739.71 681.68 733.84 699.89 C 715.47 718.62 711.19 748.37 687.40 762.36 C 658.57 777.62 633.48 800.44 602.71 811.57 C 602.06 811.73 600.75 812.04 600.10 812.20 C 624.80 797.69 649.82 783.73 673.26 767.23 C 679.35 762.18 686.84 759.47 693.57 755.50 C 701.82 749.47 706.26 739.85 711.08 731.14 C 716.74 718.11 724.82 706.50 732.89 694.98 C 734.31 683.56 742.15 674.60 743.47 663.26 C 756.93 635.13 782.74 616.31 808.93 600.93 C 821.93 593.78 838.23 589.89 846.85 576.88 C 850.53 569.63 842.48 564.07 836.26 562.75 C 817.44 557.70 799.08 551.30 780.14 546.72 C 771.72 545.33 763.01 544.33 762.17 533.86 C 747.80 504.36 744.53 470.86 730.94 441.05 C 723.99 431.06 712.93 420.58 715.22 407.34 C 721.62 395.34 727.73 383.15 733.95 371.02 C 743.34 356.36 753.21 341.35 759.26 325.17 C 751.10 314.41 736.88 307.34 723.01 309.40 C 695.52 308.25 667.09 312.08 642.78 325.79 C 636.24 329.36 627.31 333.63 621.30 326.72 C 611.80 317.16 599.20 312.29 586.21 309.68 C 555.77 297.15 522.53 295.17 490.62 288.32 C 457.59 277.78 422.64 284.30 388.96 279.98 C 365.59 270.63 346.31 251.01 320.25 248.66 C 282.50 239.00 243.50 240.96 205.04 237.36 C 176.83 236.22 148.51 237.14 120.36 235.16 Z" />
<path fill="#bfb2a1" opacity="1.00" d=" M 150.24 425.98 C 153.09 433.68 150.59 442.15 153.01 449.97 C 165.23 487.37 175.61 525.85 177.74 565.34 C 183.69 601.81 179.76 648.10 146.89 671.05 C 176.59 644.22 181.23 600.46 174.65 563.06 C 172.95 521.20 158.42 481.53 149.61 441.12 C 149.85 436.07 150.56 431.04 150.24 425.98 Z" />
<path fill="#bfb2a1" opacity="1.00" d=" M 86.89 449.11 C 87.72 447.95 88.61 446.83 89.48 445.70 C 87.46 466.37 88.53 487.08 92.21 507.68 C 93.55 545.06 93.69 582.53 92.90 619.92 C 93.51 632.11 80.66 636.97 75.03 646.01 C 77.79 639.21 83.75 634.81 88.14 629.20 C 91.58 619.24 90.38 608.65 90.55 598.35 C 95.77 548.58 84.57 498.74 86.89 449.11 Z" />
<path fill="#bfb2a1" opacity="1.00" d=" M 577.64 510.00 C 590.11 509.33 594.24 525.99 585.16 533.14 C 578.17 543.74 563.97 562.87 550.95 549.17 C 567.32 557.35 577.44 539.60 585.56 528.62 C 588.85 525.07 587.66 520.26 585.77 516.37 C 576.20 529.05 565.47 545.29 546.81 540.23 C 547.45 542.50 548.08 544.78 548.87 547.01 C 546.05 544.11 544.60 540.29 544.16 536.33 C 552.11 536.51 561.15 539.23 568.18 534.19 C 574.76 528.06 578.01 518.92 577.64 510.00 Z" />
<path fill="#bfb2a1" opacity="1.00" d=" M 382.49 755.29 C 394.37 750.52 383.29 734.47 393.86 727.39 C 405.48 739.65 415.75 754.25 432.09 760.86 C 455.00 763.61 476.97 773.99 500.59 771.45 C 514.09 775.96 527.77 779.91 541.77 782.94 C 545.39 792.27 556.68 794.05 564.70 798.16 C 586.49 799.06 604.63 784.31 624.54 777.73 C 624.75 778.31 625.16 779.46 625.37 780.04 C 624.86 781.57 624.36 783.11 623.88 784.67 C 629.19 776.59 631.48 765.08 642.43 762.60 C 640.20 767.24 641.27 772.01 647.00 772.64 C 643.66 774.69 640.84 777.43 637.93 780.03 C 623.51 789.71 609.93 800.77 594.01 808.03 C 555.60 820.85 514.92 816.55 475.77 810.25 C 461.49 806.50 449.98 796.20 435.72 792.38 C 413.15 787.71 394.37 772.92 378.92 756.51 C 380.11 756.11 381.30 755.70 382.49 755.29 Z" />
</g>
<g id="#90583bff">
<path fill="#90583b" opacity="1.00" d=" M 114.17 244.66 C 116.25 241.51 118.37 238.37 120.36 235.16 C 148.51 237.14 176.83 236.22 205.04 237.36 C 243.50 240.96 282.50 239.00 320.25 248.66 C 346.31 251.01 365.59 270.63 388.96 279.98 C 422.64 284.30 457.59 277.78 490.62 288.32 C 522.53 295.17 555.77 297.15 586.21 309.68 C 599.20 312.29 611.80 317.16 621.30 326.72 C 627.31 333.63 636.24 329.36 642.78 325.79 C 655.85 321.93 669.72 321.21 682.28 315.82 C 699.93 317.07 717.41 310.89 735.01 314.07 C 741.44 314.24 751.60 315.82 752.57 323.47 C 735.85 323.67 718.84 317.76 702.45 324.44 C 683.55 327.67 664.45 331.00 646.75 338.71 C 640.79 341.05 633.74 344.35 627.72 340.31 C 611.81 330.45 593.99 324.40 577.76 315.11 C 571.49 310.70 563.71 315.19 557.11 311.91 C 538.21 303.90 517.21 304.19 497.59 299.22 C 469.06 285.43 436.22 286.11 405.71 291.78 C 389.87 295.89 378.32 281.49 363.87 278.08 C 361.52 276.69 359.23 275.22 356.93 273.75 C 326.91 250.19 286.45 252.39 250.48 248.48 C 205.13 245.08 159.62 243.57 114.17 244.66 Z" />
<path fill="#90583b" opacity="1.00" d=" M 669.41 375.45 C 668.45 364.22 687.43 356.58 695.33 365.49 C 690.78 373.74 678.06 381.83 669.41 375.45 Z" />
<path fill="#90583b" opacity="1.00" d=" M 141.95 436.96 C 141.12 432.54 144.81 429.71 147.98 427.51 C 148.80 432.01 149.35 436.55 149.61 441.12 C 158.42 481.53 172.95 521.20 174.65 563.06 C 181.23 600.46 176.59 644.22 146.89 671.05 C 146.08 671.82 145.29 672.61 144.52 673.43 C 143.72 674.30 142.92 675.17 142.12 676.06 C 155.65 684.45 171.81 688.82 184.11 698.90 C 197.96 722.11 207.97 747.50 220.25 771.58 C 218.86 771.70 217.48 771.82 216.10 771.95 C 203.82 755.86 194.98 737.28 187.64 718.52 C 182.30 693.89 152.73 693.60 135.06 681.81 C 124.51 689.33 118.05 700.88 111.20 711.56 C 106.30 715.52 104.19 721.66 100.95 726.85 C 99.54 726.89 98.13 726.93 96.73 726.98 C 95.14 713.91 107.89 705.67 112.92 694.83 C 119.49 687.78 126.45 681.10 133.34 674.37 C 139.82 668.55 146.61 663.02 152.26 656.35 C 160.51 648.17 164.24 636.96 167.08 625.99 C 170.92 610.68 172.32 594.73 171.96 579.00 C 163.94 547.23 163.71 513.84 153.51 482.56 C 150.62 467.11 143.35 452.68 141.95 436.96 Z" />
<path fill="#90583b" opacity="1.00" d=" M 472.78 629.31 C 460.68 608.63 482.82 585.23 502.22 579.06 C 489.76 594.01 477.86 610.05 472.78 629.31 Z" />
<path fill="#90583b" opacity="1.00" d=" M 461.03 701.87 C 462.41 697.40 464.68 691.16 470.51 692.04 C 471.48 704.44 469.16 718.32 476.92 729.06 C 480.09 734.11 488.27 736.95 486.40 744.07 C 468.78 739.16 456.48 719.86 461.03 701.87 Z" />
<path fill="#90583b" opacity="1.00" d=" M 355.00 752.99 C 350.54 742.98 340.95 731.88 345.77 720.54 C 351.56 727.38 356.34 735.02 361.97 742.01 C 367.44 751.08 377.59 755.81 383.17 764.84 C 399.52 784.14 424.50 791.95 447.55 799.48 C 465.28 819.50 493.79 814.98 517.71 817.41 C 543.22 818.48 570.75 820.67 594.01 808.03 C 609.93 800.77 623.51 789.71 637.93 780.03 C 651.16 772.73 663.94 764.24 678.15 758.99 C 676.75 761.87 675.26 764.72 673.26 767.23 C 649.82 783.73 624.80 797.69 600.10 812.20 C 585.19 819.93 568.89 824.10 552.34 826.47 C 524.86 826.42 497.49 821.65 470.00 823.68 C 439.23 823.37 409.84 813.09 379.68 808.32 C 324.94 801.35 269.36 795.76 214.44 804.40 C 195.50 807.84 176.18 809.41 156.99 807.17 C 153.31 806.14 150.29 803.68 148.49 800.32 C 171.67 807.19 194.03 796.06 217.00 794.09 C 252.03 792.80 287.05 792.81 322.09 793.57 C 340.54 793.90 358.96 799.16 377.39 796.39 C 386.26 793.96 393.19 802.01 401.77 802.65 C 402.10 793.65 396.91 785.23 387.22 785.07 C 383.18 783.83 377.58 783.77 375.15 779.98 C 375.56 767.31 362.09 761.65 355.00 752.99 Z" />
</g>
<g id="#ad8761fe">
<path fill="#ad8761" opacity="1.00" d=" M 114.17 244.66 C 159.62 243.57 205.13 245.08 250.48 248.48 C 286.45 252.39 326.91 250.19 356.93 273.75 C 356.47 274.11 355.56 274.84 355.11 275.21 C 354.84 277.19 354.57 279.18 354.30 281.16 C 346.27 260.41 321.99 260.03 303.43 256.48 C 242.95 248.78 181.84 247.11 120.91 247.03 C 117.17 246.68 113.48 248.02 111.02 250.89 C 112.07 248.81 113.13 246.74 114.17 244.66 Z" />
<path fill="#ad8761" opacity="1.00" d=" M 363.87 278.08 C 378.32 281.49 389.87 295.89 405.71 291.78 C 436.22 286.11 469.06 285.43 497.59 299.22 C 517.21 304.19 538.21 303.90 557.11 311.91 C 563.71 315.19 571.49 310.70 577.76 315.11 C 593.99 324.40 611.81 330.45 627.72 340.31 C 633.74 344.35 640.79 341.05 646.75 338.71 C 664.45 331.00 683.55 327.67 702.45 324.44 C 718.84 317.76 735.85 323.67 752.57 323.47 C 751.60 315.82 741.44 314.24 735.01 314.07 C 717.41 310.89 699.93 317.07 682.28 315.82 C 669.72 321.21 655.85 321.93 642.78 325.79 C 667.09 312.08 695.52 308.25 723.01 309.40 C 736.88 307.34 751.10 314.41 759.26 325.17 C 753.21 341.35 743.34 356.36 733.95 371.02 C 735.85 366.15 737.24 361.10 738.48 356.03 C 723.73 364.06 716.11 379.25 708.84 393.50 C 707.69 398.72 709.48 406.44 702.32 407.48 C 706.25 403.71 705.63 398.57 702.34 394.64 C 713.66 385.42 718.36 371.16 726.54 359.52 C 733.58 349.78 744.92 341.19 745.77 328.44 C 735.68 321.00 722.19 323.83 710.71 325.61 C 689.06 329.84 666.40 331.82 646.21 341.23 C 639.75 345.61 633.39 351.54 624.86 349.82 C 624.11 346.17 624.09 341.64 620.60 339.39 C 599.54 325.38 574.50 320.00 550.91 311.90 C 533.46 306.13 514.72 306.74 497.08 301.70 C 481.91 301.27 467.53 296.62 453.31 291.72 C 438.94 287.84 424.19 291.76 409.90 293.91 C 400.26 295.18 390.01 295.61 380.67 292.79 C 379.85 283.75 369.89 282.67 363.87 278.08 Z" />
<path fill="#ad8761" opacity="1.00" d=" M 482.37 566.11 C 497.24 548.60 529.74 567.40 526.72 589.06 C 528.36 594.18 519.16 602.89 519.03 593.99 C 521.12 582.98 514.58 572.34 503.92 569.10 C 497.07 565.25 488.19 572.07 482.37 566.11 Z" />
<path fill="#ad8761" opacity="1.00" d=" M 577.96 624.34 C 578.68 624.32 580.11 624.28 580.83 624.27 C 590.96 640.24 594.65 659.27 603.19 676.07 C 600.96 677.23 597.63 679.01 596.46 675.60 C 589.21 658.95 583.55 641.61 577.96 624.34 Z" />
<path fill="#ad8761" opacity="1.00" d=" M 625.29 666.32 C 635.49 656.41 650.72 646.92 665.27 651.80 C 681.77 661.17 691.28 687.11 675.73 701.71 C 670.06 712.67 656.84 708.15 647.29 706.51 C 637.95 704.89 632.49 696.62 625.51 691.20 C 622.17 689.94 617.53 695.64 620.44 698.53 C 629.96 708.85 644.08 712.98 657.65 714.33 C 657.74 715.07 657.92 716.55 658.01 717.28 C 641.94 722.48 624.03 713.62 614.41 700.65 C 611.19 690.09 618.02 679.93 622.24 670.62 C 623.20 669.15 624.19 667.70 625.29 666.32 M 616.14 693.28 C 619.22 692.43 621.99 690.81 624.41 688.74 C 635.29 701.31 650.77 708.12 667.42 707.36 C 668.77 704.66 666.25 702.46 664.93 700.38 C 668.39 694.29 677.81 700.59 679.98 693.07 C 683.33 680.60 679.89 664.90 668.94 657.09 C 644.11 644.64 618.21 668.95 616.14 693.28 Z" />
<path fill="#ad8761" opacity="1.00" d=" M 361.97 742.01 C 367.25 747.25 373.08 751.91 378.92 756.51 C 394.37 772.92 413.15 787.71 435.72 792.38 C 449.98 796.20 461.49 806.50 475.77 810.25 C 514.92 816.55 555.60 820.85 594.01 808.03 C 570.75 820.67 543.22 818.48 517.71 817.41 C 493.79 814.98 465.28 819.50 447.55 799.48 C 424.50 791.95 399.52 784.14 383.17 764.84 C 377.59 755.81 367.44 751.08 361.97 742.01 Z" />
<path fill="#ad8761" opacity="1.00" d=" M 600.07 819.90 C 612.77 815.56 626.73 817.63 639.89 817.94 C 639.86 818.67 639.80 820.14 639.76 820.87 C 627.06 825.57 613.34 822.20 600.16 822.75 C 600.14 822.04 600.10 820.61 600.07 819.90 Z" />
</g>
<g id="#dfd47eff">
<path fill="#dfd47e" opacity="1.00" d=" M 111.02 250.89 C 113.48 248.02 117.17 246.68 120.91 247.03 C 181.84 247.11 242.95 248.78 303.43 256.48 C 321.99 260.03 346.27 260.41 354.30 281.16 C 354.57 279.18 354.84 277.19 355.11 275.21 C 355.56 274.84 356.47 274.11 356.93 273.75 C 359.23 275.22 361.52 276.69 363.87 278.08 C 369.89 282.67 379.85 283.75 380.67 292.79 C 390.01 295.61 400.26 295.18 409.90 293.91 C 413.14 294.06 416.33 294.75 419.49 295.54 C 417.96 298.56 416.45 301.59 414.97 304.63 C 423.20 308.75 417.55 317.31 417.60 324.14 C 432.69 322.58 448.54 319.44 462.98 326.08 C 473.08 331.39 483.50 323.90 493.98 324.88 C 508.44 323.96 522.18 332.32 536.61 328.81 C 529.66 308.87 504.27 317.00 490.67 305.96 C 491.25 302.84 494.39 302.09 497.08 301.70 C 514.72 306.74 533.46 306.13 550.91 311.90 C 566.82 313.90 554.37 329.67 564.07 337.56 C 556.87 339.05 549.50 339.53 542.36 341.32 C 545.43 348.66 552.73 353.58 554.23 361.67 C 556.57 372.63 558.16 385.16 567.39 392.77 C 571.11 390.57 575.36 389.54 579.68 389.66 C 581.75 402.65 600.14 400.55 598.62 414.96 C 592.87 415.66 587.42 412.98 581.98 411.54 C 581.36 412.12 580.73 412.70 580.10 413.27 C 581.28 416.86 582.43 420.48 584.12 423.87 C 579.08 415.98 567.89 414.83 564.02 406.04 C 558.98 389.85 550.60 374.58 548.55 357.59 C 544.80 358.25 541.30 362.13 537.45 359.64 C 514.82 350.33 490.77 334.26 465.49 344.04 C 443.25 344.19 421.46 351.57 403.26 364.31 C 385.79 373.13 380.30 393.85 366.64 406.54 C 356.22 410.95 345.64 417.04 341.25 428.17 C 340.49 427.53 339.73 426.89 338.98 426.25 C 331.71 432.42 327.23 441.19 319.85 447.20 C 313.88 440.03 324.29 434.10 328.10 428.87 C 319.84 427.80 312.78 434.15 305.06 427.98 C 295.78 436.66 282.98 442.76 274.13 451.82 C 265.99 441.83 269.72 425.72 264.89 413.60 C 243.20 448.91 235.87 494.75 246.84 534.95 C 256.22 518.45 252.10 497.80 253.49 479.49 C 260.31 494.91 260.23 512.59 261.85 529.12 C 264.78 539.57 278.39 539.46 282.95 549.13 C 292.31 549.53 302.44 551.13 311.82 548.52 C 316.08 548.63 315.72 554.20 316.35 557.22 C 312.77 557.21 309.19 556.95 305.64 556.50 C 309.84 579.83 311.71 603.54 312.94 627.22 C 310.82 617.48 311.94 605.42 302.90 598.86 C 297.59 611.89 302.48 626.22 305.75 639.18 C 308.64 647.09 309.63 657.42 318.46 661.14 C 321.11 654.63 317.21 648.11 316.10 641.72 C 316.60 641.67 317.59 641.57 318.08 641.52 C 321.92 652.21 328.74 662.65 336.99 669.96 C 339.89 665.57 336.35 657.43 335.95 651.59 C 340.11 660.96 343.18 670.77 345.90 680.65 C 334.51 694.26 349.57 710.09 354.83 723.11 C 357.95 733.62 367.24 739.39 375.24 745.87 C 377.85 748.85 380.14 752.10 382.49 755.29 C 381.30 755.70 380.11 756.11 378.92 756.51 C 373.08 751.91 367.25 747.25 361.97 742.01 C 356.34 735.02 351.56 727.38 345.77 720.54 C 340.95 731.88 350.54 742.98 355.00 752.99 L 355.32 753.73 C 350.17 746.95 346.20 738.83 338.56 734.44 C 325.45 726.66 319.48 711.80 308.70 701.62 C 307.98 714.28 315.29 725.74 314.90 738.40 C 304.94 733.64 299.32 723.66 290.91 716.94 C 279.95 687.11 262.07 657.93 263.89 625.24 C 261.90 614.00 259.58 602.76 259.98 591.25 C 259.76 575.96 259.21 560.08 253.70 545.66 C 251.16 546.92 248.52 547.94 245.97 549.19 C 233.94 520.05 241.13 488.14 243.91 457.89 C 244.60 446.81 248.80 436.67 252.84 426.52 C 248.72 428.44 244.90 430.92 241.14 433.47 C 237.43 415.63 246.36 398.05 255.70 383.41 C 251.70 394.86 244.64 405.89 246.04 418.58 C 254.29 415.99 256.79 403.31 266.47 405.11 C 268.62 392.04 278.30 382.11 287.18 373.08 C 283.16 383.41 270.38 390.02 273.51 402.74 C 275.27 413.24 273.12 423.98 275.23 434.40 C 280.56 430.16 279.91 422.48 282.82 416.79 C 289.60 405.65 281.38 389.69 294.09 381.51 C 288.82 390.72 288.88 401.72 287.87 411.98 C 287.34 416.59 292.42 417.62 295.82 418.44 C 292.77 411.57 296.18 405.85 301.37 401.43 C 307.00 390.26 315.52 380.39 326.81 374.65 C 320.93 389.46 303.29 399.25 304.18 416.59 C 311.28 423.61 314.72 411.01 315.94 405.73 C 326.13 393.19 335.95 379.27 350.78 371.76 C 362.01 366.43 363.24 349.01 376.88 347.88 C 385.08 347.96 392.17 343.49 398.22 338.41 C 396.62 336.19 395.24 333.81 393.63 331.60 C 396.39 328.66 399.72 326.35 403.33 324.56 C 397.27 320.72 390.94 313.68 383.08 316.96 C 368.81 321.97 353.44 318.52 338.74 317.95 C 347.70 310.22 359.84 312.68 370.13 309.02 C 356.98 305.66 342.57 307.01 329.28 309.36 C 324.75 313.37 321.79 319.93 314.71 320.00 C 314.45 315.55 313.86 311.04 314.59 306.60 C 327.18 297.83 343.98 302.93 357.97 300.22 C 330.97 281.00 294.68 291.47 266.18 275.88 C 254.40 287.24 235.92 279.72 221.23 281.33 C 206.32 278.72 194.07 289.00 180.80 293.66 C 172.42 297.40 161.42 302.99 162.59 313.76 C 151.89 318.97 142.63 326.46 134.52 335.24 C 142.36 338.87 152.15 331.40 158.74 336.44 C 156.83 345.80 146.28 359.54 158.49 366.29 C 167.67 364.29 176.42 359.54 186.15 359.16 C 181.06 361.43 176.27 364.34 171.91 367.80 C 169.16 369.83 166.65 372.16 164.16 374.49 C 167.01 375.46 169.96 376.27 173.00 376.29 C 167.99 378.96 163.99 383.06 159.93 386.95 C 151.78 395.31 137.84 399.18 135.29 411.94 C 131.20 413.53 126.79 413.95 122.47 414.43 C 123.69 412.34 124.96 410.30 126.17 408.21 C 126.18 408.71 126.20 409.70 126.22 410.20 C 137.17 397.20 150.18 386.26 161.92 374.03 C 148.82 381.67 133.00 388.39 128.00 404.11 C 128.22 391.06 139.95 384.28 148.29 376.30 C 152.58 373.19 151.10 365.42 145.62 364.90 C 129.71 364.55 111.70 369.67 103.43 384.42 C 100.01 390.52 106.37 395.90 106.89 401.77 C 105.38 406.93 100.57 410.08 96.98 413.76 C 95.91 414.78 94.86 415.82 93.86 416.92 C 94.94 414.98 95.88 412.98 96.83 410.98 C 86.78 414.46 77.60 422.11 81.08 433.97 C 82.44 433.67 83.81 433.37 85.17 433.08 C 75.94 456.38 80.03 481.87 83.28 505.94 C 82.37 504.08 81.52 497.95 78.92 500.06 C 75.05 511.50 78.63 523.78 78.63 535.54 C 80.16 554.72 74.12 574.36 80.24 593.11 C 87.09 565.09 82.21 535.49 83.38 506.84 C 84.97 528.82 86.64 550.99 84.23 572.97 C 82.79 589.97 88.62 607.73 81.06 623.91 C 80.93 621.02 80.57 618.15 80.22 615.30 C 78.23 615.57 76.24 615.88 74.24 616.15 C 71.29 612.95 67.81 610.27 63.83 608.48 C 61.11 615.77 70.16 617.03 73.42 621.50 C 74.59 629.42 65.75 634.20 58.85 631.67 C 58.48 632.79 58.12 633.90 57.75 635.03 C 41.54 576.12 30.77 513.92 40.59 453.05 C 43.10 418.42 52.86 384.77 62.38 351.48 C 74.55 316.18 91.55 282.68 111.02 250.89 M 399.84 348.04 C 418.06 334.69 441.60 336.32 462.39 329.88 C 441.90 316.74 411.88 327.84 399.84 348.04 Z" />
</g>
<g id="#dccf6dff">
<path fill="#dccf6d" opacity="1.00" d=" M 221.23 281.33 C 235.92 279.72 254.40 287.24 266.18 275.88 C 294.68 291.47 330.97 281.00 357.97 300.22 C 343.98 302.93 327.18 297.83 314.59 306.60 C 313.86 311.04 314.45 315.55 314.71 320.00 C 321.79 319.93 324.75 313.37 329.28 309.36 C 342.57 307.01 356.98 305.66 370.13 309.02 C 359.84 312.68 347.70 310.22 338.74 317.95 C 353.44 318.52 368.81 321.97 383.08 316.96 C 390.94 313.68 397.27 320.72 403.33 324.56 C 399.72 326.35 396.39 328.66 393.63 331.60 C 395.24 333.81 396.62 336.19 398.22 338.41 C 392.17 343.49 385.08 347.96 376.88 347.88 C 363.24 349.01 362.01 366.43 350.78 371.76 C 335.95 379.27 326.13 393.19 315.94 405.73 C 314.72 411.01 311.28 423.61 304.18 416.59 C 303.29 399.25 320.93 389.46 326.81 374.65 C 315.52 380.39 307.00 390.26 301.37 401.43 C 296.18 405.85 292.77 411.57 295.82 418.44 C 292.42 417.62 287.34 416.59 287.87 411.98 C 288.88 401.72 288.82 390.72 294.09 381.51 C 303.19 371.80 312.93 362.70 322.03 353.00 C 310.25 359.33 298.58 366.03 287.18 373.08 C 278.30 382.11 268.62 392.04 266.47 405.11 C 256.79 403.31 254.29 415.99 246.04 418.58 C 244.64 405.89 251.70 394.86 255.70 383.41 C 252.90 382.58 249.95 382.46 247.08 382.93 C 236.76 383.48 225.51 386.56 215.95 381.12 C 202.97 374.26 187.08 370.32 173.00 376.29 C 169.96 376.27 167.01 375.46 164.16 374.49 C 166.65 372.16 169.16 369.83 171.91 367.80 C 188.19 366.30 203.07 359.59 218.70 355.47 C 220.92 354.83 220.13 351.94 220.65 350.19 C 209.01 352.61 197.41 355.33 186.15 359.16 C 176.42 359.54 167.67 364.29 158.49 366.29 C 146.28 359.54 156.83 345.80 158.74 336.44 C 152.15 331.40 142.36 338.87 134.52 335.24 C 142.63 326.46 151.89 318.97 162.59 313.76 C 161.42 302.99 172.42 297.40 180.80 293.66 C 194.07 289.00 206.32 278.72 221.23 281.33 M 278.70 342.23 C 282.18 350.71 294.25 346.33 300.66 343.50 C 306.61 338.52 315.08 343.81 321.02 338.93 C 324.90 335.19 328.19 330.87 331.80 326.87 C 316.03 338.16 296.94 338.82 278.70 342.23 Z" />
<path fill="#dccf6d" opacity="1.00" d=" M 246.84 534.95 C 235.87 494.75 243.20 448.91 264.89 413.60 C 269.72 425.72 265.99 441.83 274.13 451.82 C 282.98 442.76 295.78 436.66 305.06 427.98 C 312.78 434.15 319.84 427.80 328.10 428.87 C 324.29 434.10 313.88 440.03 319.85 447.20 C 327.23 441.19 331.71 432.42 338.98 426.25 C 339.73 426.89 340.49 427.53 341.25 428.17 C 335.16 440.37 328.87 452.75 326.34 466.27 C 325.49 486.02 330.62 505.59 329.41 525.34 C 325.66 543.13 327.47 561.10 327.96 579.09 C 326.27 574.04 326.97 567.16 322.28 563.78 C 318.49 582.26 325.01 600.86 327.93 619.05 C 329.02 618.41 330.10 617.78 331.20 617.17 C 331.33 626.61 333.62 635.85 335.00 645.16 C 335.27 647.30 335.56 649.45 335.95 651.59 C 336.35 657.43 339.89 665.57 336.99 669.96 C 328.74 662.65 321.92 652.21 318.08 641.52 C 317.59 641.57 316.60 641.67 316.10 641.72 C 314.97 636.90 313.72 632.11 312.94 627.22 C 311.71 603.54 309.84 579.83 305.64 556.50 C 309.19 556.95 312.77 557.21 316.35 557.22 C 315.72 554.20 316.08 548.63 311.82 548.52 C 302.44 551.13 292.31 549.53 282.95 549.13 C 278.39 539.46 264.78 539.57 261.85 529.12 C 260.23 512.59 260.31 494.91 253.49 479.49 C 252.10 497.80 256.22 518.45 246.84 534.95 Z" />
<path fill="#dccf6d" opacity="1.00" d=" M 689.25 483.77 C 697.98 487.69 702.81 502.05 713.71 498.64 C 722.85 494.97 724.72 508.35 727.66 514.31 C 725.56 525.69 706.79 521.32 705.57 533.42 C 703.39 544.15 702.55 555.23 704.09 566.10 C 704.33 574.93 690.06 584.75 684.72 574.25 C 679.18 569.36 684.00 561.95 682.45 556.60 C 671.06 554.99 662.65 543.75 660.82 533.24 C 670.93 524.21 678.47 512.25 689.80 504.66 C 698.34 499.80 692.42 491.27 687.69 486.15 C 688.08 485.55 688.86 484.36 689.25 483.77 Z" />
</g>
<g id="#d8c95bff">
<path fill="#d8c95b" opacity="1.00" d=" M 409.90 293.91 C 424.19 291.76 438.94 287.84 453.31 291.72 C 467.53 296.62 481.91 301.27 497.08 301.70 C 494.39 302.09 491.25 302.84 490.67 305.96 C 504.27 317.00 529.66 308.87 536.61 328.81 C 522.18 332.32 508.44 323.96 493.98 324.88 C 483.50 323.90 473.08 331.39 462.98 326.08 C 448.54 319.44 432.69 322.58 417.60 324.14 C 417.55 317.31 423.20 308.75 414.97 304.63 C 416.45 301.59 417.96 298.56 419.49 295.54 C 416.33 294.75 413.14 294.06 409.90 293.91 Z" />
<path fill="#d8c95b" opacity="1.00" d=" M 550.91 311.90 C 574.50 320.00 599.54 325.38 620.60 339.39 C 624.09 341.64 624.11 346.17 624.86 349.82 C 633.39 351.54 639.75 345.61 646.21 341.23 C 666.40 331.82 689.06 329.84 710.71 325.61 C 722.19 323.83 735.68 321.00 745.77 328.44 C 744.92 341.19 733.58 349.78 726.54 359.52 C 718.36 371.16 713.66 385.42 702.34 394.64 C 705.63 398.57 706.25 403.71 702.32 407.48 C 699.44 411.79 694.28 415.12 692.53 419.79 C 701.10 428.34 709.45 437.24 719.09 444.79 C 714.92 442.73 710.30 441.19 705.61 442.02 C 713.37 448.57 713.34 457.73 708.12 465.74 C 715.42 472.71 720.47 484.69 731.87 485.15 C 731.80 478.68 730.86 472.23 729.07 466.01 C 742.70 501.90 748.60 540.05 759.18 576.83 C 760.12 578.35 762.14 578.71 763.62 579.59 C 765.75 573.74 767.01 567.63 768.06 561.51 C 786.75 562.48 803.94 569.90 821.28 576.18 C 814.44 585.53 802.41 588.90 794.30 597.24 C 786.97 586.61 773.74 594.14 764.40 597.44 C 759.46 598.89 755.55 602.59 755.76 608.06 C 764.34 607.74 771.79 602.28 780.47 602.81 C 774.43 610.85 763.29 611.61 755.71 617.75 C 743.37 626.31 741.36 642.00 736.20 654.96 C 733.08 666.35 726.62 676.52 724.41 688.20 C 724.20 687.40 723.78 685.80 723.57 685.00 C 718.12 689.16 713.64 694.48 707.76 698.07 C 710.14 688.39 720.20 677.87 712.81 668.12 C 706.47 660.11 707.30 649.45 706.09 639.89 C 707.13 641.78 708.32 643.58 709.52 645.40 C 718.76 636.48 714.80 619.95 704.45 613.62 C 698.53 610.17 693.62 605.26 690.54 599.11 C 692.89 597.29 695.22 595.43 697.58 593.63 C 697.68 592.97 697.88 591.64 697.98 590.97 C 678.10 592.16 659.50 601.30 639.81 604.70 C 639.75 609.96 645.40 611.01 649.21 612.73 C 636.93 618.81 624.11 625.81 609.93 622.41 C 612.52 632.48 623.83 636.40 631.19 642.62 C 627.43 644.78 623.81 647.18 620.05 649.34 C 618.64 648.62 617.27 647.88 615.89 647.15 C 612.92 643.21 610.14 638.90 605.77 636.36 C 605.02 644.20 612.42 651.26 608.47 659.34 C 603.27 644.96 597.68 629.87 587.93 617.95 C 590.16 608.82 600.36 619.82 604.83 622.35 C 602.07 616.61 596.96 611.12 598.82 604.24 C 603.14 606.58 606.59 610.11 609.92 613.66 C 614.22 606.65 618.64 599.70 624.27 593.67 C 633.02 576.53 656.98 573.96 663.60 555.90 C 656.29 533.76 647.64 511.68 637.15 490.82 C 623.42 465.40 601.51 446.67 584.12 423.87 C 582.43 420.48 581.28 416.86 580.10 413.27 C 580.73 412.70 581.36 412.12 581.98 411.54 C 587.42 412.98 592.87 415.66 598.62 414.96 C 600.14 400.55 581.75 402.65 579.68 389.66 C 575.36 389.54 571.11 390.57 567.39 392.77 C 558.16 385.16 556.57 372.63 554.23 361.67 C 552.73 353.58 545.43 348.66 542.36 341.32 C 549.50 339.53 556.87 339.05 564.07 337.56 C 554.37 329.67 566.82 313.90 550.91 311.90 M 701.32 358.21 C 705.48 354.58 714.42 349.66 711.56 343.46 C 703.76 339.46 695.45 351.49 701.32 358.21 M 669.41 375.45 C 678.06 381.83 690.78 373.74 695.33 365.49 C 687.43 356.58 668.45 364.22 669.41 375.45 M 695.90 465.64 C 693.63 475.40 704.71 482.01 712.03 486.09 C 709.46 477.67 704.30 469.23 695.90 465.64 M 689.25 483.77 C 688.86 484.36 688.08 485.55 687.69 486.15 C 692.42 491.27 698.34 499.80 689.80 504.66 C 678.47 512.25 670.93 524.21 660.82 533.24 C 662.65 543.75 671.06 554.99 682.45 556.60 C 684.00 561.95 679.18 569.36 684.72 574.25 C 690.06 584.75 704.33 574.93 704.09 566.10 C 702.55 555.23 703.39 544.15 705.57 533.42 C 706.79 521.32 725.56 525.69 727.66 514.31 C 724.72 508.35 722.85 494.97 713.71 498.64 C 702.81 502.05 697.98 487.69 689.25 483.77 Z" />
<path fill="#d8c95b" opacity="1.00" d=" M 103.43 384.42 C 111.70 369.67 129.71 364.55 145.62 364.90 C 151.10 365.42 152.58 373.19 148.29 376.30 C 139.95 384.28 128.22 391.06 128.00 404.11 C 127.40 405.47 126.78 406.84 126.17 408.21 C 124.96 410.30 123.69 412.34 122.47 414.43 C 126.79 413.95 131.20 413.53 135.29 411.94 C 138.94 409.99 142.37 407.60 146.20 406.01 C 143.55 413.43 144.59 420.29 150.24 425.98 C 150.56 431.04 149.85 436.07 149.61 441.12 C 149.35 436.55 148.80 432.01 147.98 427.51 C 144.81 429.71 141.12 432.54 141.95 436.96 C 143.35 452.68 150.62 467.11 153.51 482.56 C 163.71 513.84 163.94 547.23 171.96 579.00 C 172.32 594.73 170.92 610.68 167.08 625.99 C 167.20 622.13 166.74 618.29 166.21 614.48 C 158.40 629.16 155.62 646.12 145.84 659.94 C 148.02 658.81 150.21 657.69 152.26 656.35 C 146.61 663.02 139.82 668.55 133.34 674.37 C 135.03 672.13 136.44 669.70 137.82 667.27 C 124.50 671.41 120.09 687.94 106.08 691.02 C 98.84 694.33 83.32 691.65 88.87 680.81 C 91.61 663.55 94.45 645.89 105.61 631.60 C 110.88 618.37 109.26 603.28 113.82 589.70 C 116.05 549.48 102.04 509.65 105.79 469.48 C 111.07 456.45 114.73 440.87 105.94 428.34 C 105.62 428.64 104.99 429.23 104.67 429.53 C 99.43 434.74 93.87 439.70 89.48 445.70 C 88.61 446.83 87.72 447.95 86.89 449.11 C 90.22 436.96 93.10 424.15 100.88 413.92 C 99.58 413.86 98.28 413.81 96.98 413.76 C 100.57 410.08 105.38 406.93 106.89 401.77 C 106.37 395.90 100.01 390.52 103.43 384.42 M 158.94 526.26 C 159.19 507.54 155.43 487.80 146.80 471.16 C 143.48 490.42 147.02 510.54 158.94 526.26 Z" />
<path fill="#d8c95b" opacity="1.00" d=" M 142.12 676.06 C 142.92 675.17 143.72 674.30 144.52 673.43 C 156.49 683.86 174.23 685.97 185.06 697.93 C 199.97 720.19 209.77 745.28 220.77 769.57 C 227.28 778.01 239.53 772.54 248.55 774.85 C 256.22 777.26 261.31 770.37 267.79 768.00 C 287.60 762.33 308.76 763.30 328.27 756.49 C 337.89 753.83 347.85 756.27 357.21 758.84 C 356.61 757.12 356.04 755.39 355.32 753.73 L 355.00 752.99 C 362.09 761.65 375.56 767.31 375.15 779.98 C 377.58 783.77 383.18 783.83 387.22 785.07 C 388.07 786.98 388.92 788.90 389.76 790.83 C 369.17 790.77 349.87 777.04 328.70 776.75 C 331.43 787.36 342.67 788.12 350.56 792.87 C 304.69 789.54 258.92 791.36 212.85 793.04 C 216.49 792.17 219.74 790.24 222.67 787.97 C 208.48 785.14 193.97 791.26 179.90 788.08 C 160.21 766.74 133.41 751.42 106.22 740.62 C 108.44 745.10 110.63 749.60 113.13 753.93 C 107.21 747.14 103.03 739.10 98.74 731.24 C 103.60 725.16 107.73 718.54 111.20 711.56 C 118.05 700.88 124.51 689.33 135.06 681.81 C 152.73 693.60 182.30 693.89 187.64 718.52 C 194.98 737.28 203.82 755.86 216.10 771.95 C 217.48 771.82 218.86 771.70 220.25 771.58 C 207.97 747.50 197.96 722.11 184.11 698.90 C 171.81 688.82 155.65 684.45 142.12 676.06 Z" />
</g>
<g id="#f5f1e1ff">
<path fill="#f5f1e1" opacity="1.00" d=" M 399.84 348.04 C 411.88 327.84 441.90 316.74 462.39 329.88 C 441.60 336.32 418.06 334.69 399.84 348.04 Z" />
<path fill="#f5f1e1" opacity="1.00" d=" M 701.32 358.21 C 695.45 351.49 703.76 339.46 711.56 343.46 C 714.42 349.66 705.48 354.58 701.32 358.21 Z" />
<path fill="#f5f1e1" opacity="1.00" d=" M 186.15 359.16 C 197.41 355.33 209.01 352.61 220.65 350.19 C 220.13 351.94 220.92 354.83 218.70 355.47 C 203.07 359.59 188.19 366.30 171.91 367.80 C 176.27 364.34 181.06 361.43 186.15 359.16 Z" />
<path fill="#f5f1e1" opacity="1.00" d=" M 173.00 376.29 C 187.08 370.32 202.97 374.26 215.95 381.12 C 225.51 386.56 236.76 383.48 247.08 382.93 C 226.50 385.41 205.89 387.80 185.99 394.14 C 180.79 395.99 174.55 398.70 169.77 394.36 C 182.08 385.99 196.90 378.17 212.03 383.78 C 195.21 368.47 178.36 388.38 159.93 386.95 C 163.99 383.06 167.99 378.96 173.00 376.29 Z" />
<path fill="#f5f1e1" opacity="1.00" d=" M 695.90 465.64 C 704.30 469.23 709.46 477.67 712.03 486.09 C 704.71 482.01 693.63 475.40 695.90 465.64 Z" />
<path fill="#f5f1e1" opacity="1.00" d=" M 78.92 500.06 C 81.52 497.95 82.37 504.08 83.28 505.94 L 83.38 506.84 C 82.21 535.49 87.09 565.09 80.24 593.11 C 74.12 574.36 80.16 554.72 78.63 535.54 C 78.63 523.78 75.05 511.50 78.92 500.06 Z" />
<path fill="#f5f1e1" opacity="1.00" d=" M 333.35 598.76 C 337.01 604.86 337.81 611.71 336.92 618.66 C 339.76 630.47 349.38 639.36 353.29 650.80 C 355.68 658.55 351.29 666.91 354.57 674.51 C 357.41 679.68 363.95 680.96 367.53 685.49 C 376.98 697.87 378.74 715.66 391.89 725.26 C 387.76 723.86 384.08 721.48 380.63 718.89 C 380.70 724.55 378.57 729.76 376.70 734.97 C 378.32 739.74 381.45 743.96 382.30 749.05 C 379.90 748.09 377.50 747.13 375.24 745.87 C 367.24 739.39 357.95 733.62 354.83 723.11 C 349.57 710.09 334.51 694.26 345.90 680.65 C 343.18 670.77 340.11 660.96 335.95 651.59 C 335.56 649.45 335.27 647.30 335.00 645.16 C 333.16 629.66 334.11 614.23 333.35 598.76 Z" />
<path fill="#f5f1e1" opacity="1.00" d=" M 145.84 659.94 C 155.62 646.12 158.40 629.16 166.21 614.48 C 166.74 618.29 167.20 622.13 167.08 625.99 C 164.24 636.96 160.51 648.17 152.26 656.35 C 150.21 657.69 148.02 658.81 145.84 659.94 Z" />
</g>
<g id="#e5dd8dff">
<path fill="#e5dd8d" opacity="1.00" d=" M 278.70 342.23 C 296.94 338.82 316.03 338.16 331.80 326.87 C 328.19 330.87 324.90 335.19 321.02 338.93 C 315.08 343.81 306.61 338.52 300.66 343.50 C 294.25 346.33 282.18 350.71 278.70 342.23 Z" />
<path fill="#e5dd8d" opacity="1.00" d=" M 104.67 429.53 C 104.99 429.23 105.62 428.64 105.94 428.34 C 114.73 440.87 111.07 456.45 105.79 469.48 C 102.04 509.65 116.05 549.48 113.82 589.70 C 109.26 603.28 110.88 618.37 105.61 631.60 C 94.45 645.89 91.61 663.55 88.87 680.81 C 83.32 691.65 98.84 694.33 106.08 691.02 C 120.09 687.94 124.50 671.41 137.82 667.27 C 136.44 669.70 135.03 672.13 133.34 674.37 C 126.45 681.10 119.49 687.78 112.92 694.83 L 112.42 695.36 C 112.42 694.02 112.42 692.69 112.43 691.37 C 104.06 694.48 90.75 701.86 85.38 690.54 C 88.33 669.76 89.51 647.02 104.23 630.20 C 105.94 615.35 108.23 600.16 108.54 585.02 C 116.72 545.10 94.95 505.28 103.39 465.33 C 109.68 454.32 109.26 441.09 104.67 429.53 Z" />
</g>
<g id="#e6df9fff">
<path fill="#e6df9f" opacity="1.00" d=" M 465.49 344.04 C 490.77 334.26 514.82 350.33 537.45 359.64 C 541.30 362.13 544.80 358.25 548.55 357.59 C 550.60 374.58 558.98 389.85 564.02 406.04 C 567.89 414.83 579.08 415.98 584.12 423.87 C 601.51 446.67 623.42 465.40 637.15 490.82 C 636.22 503.05 648.81 517.44 638.66 527.83 C 637.91 523.49 634.64 520.33 632.62 516.59 C 635.46 516.89 638.31 517.11 641.14 517.54 C 636.21 500.05 632.25 479.71 616.79 468.27 C 605.77 464.38 596.80 456.93 586.84 451.15 C 568.24 444.53 553.42 429.51 545.32 411.77 C 540.02 400.09 552.65 389.52 549.04 378.02 C 539.90 367.92 525.61 365.22 512.58 364.35 C 489.78 359.33 465.43 357.69 443.30 366.24 C 413.10 384.67 382.83 404.64 359.87 431.93 C 364.55 429.88 369.29 427.89 374.33 426.89 C 369.21 437.32 358.13 442.36 347.80 445.82 C 338.38 459.16 334.73 476.10 333.58 492.19 C 336.84 515.61 327.71 538.70 330.43 562.15 C 329.33 574.50 332.63 586.50 333.35 598.76 C 334.11 614.23 333.16 629.66 335.00 645.16 C 333.62 635.85 331.33 626.61 331.20 617.17 C 332.32 604.41 330.97 591.50 327.96 579.09 C 327.47 561.10 325.66 543.13 329.41 525.34 C 330.62 505.59 325.49 486.02 326.34 466.27 C 328.87 452.75 335.16 440.37 341.25 428.17 C 345.64 417.04 356.22 410.95 366.64 406.54 C 380.30 393.85 385.79 373.13 403.26 364.31 C 421.46 351.57 443.25 344.19 465.49 344.04 Z" />
<path fill="#e6df9f" opacity="1.00" d=" M 705.61 442.02 C 710.30 441.19 714.92 442.73 719.09 444.79 C 719.77 445.48 720.41 446.21 721.02 446.98 C 723.57 453.38 726.19 459.75 729.07 466.01 C 730.86 472.23 731.80 478.68 731.87 485.15 C 720.47 484.69 715.42 472.71 708.12 465.74 C 713.34 457.73 713.37 448.57 705.61 442.02 Z" />
<path fill="#e6df9f" opacity="1.00" d=" M 237.68 502.80 C 237.70 487.71 237.62 471.92 243.91 457.89 C 241.13 488.14 233.94 520.05 245.97 549.19 C 248.52 547.94 251.16 546.92 253.70 545.66 C 259.21 560.08 259.76 575.96 259.98 591.25 C 259.17 583.04 258.05 574.86 256.68 566.73 C 254.22 568.03 251.76 569.34 249.33 570.70 C 240.03 549.43 236.50 525.90 237.68 502.80 Z" />
<path fill="#e6df9f" opacity="1.00" d=" M 158.94 526.26 C 147.02 510.54 143.48 490.42 146.80 471.16 C 155.43 487.80 159.19 507.54 158.94 526.26 Z" />
<path fill="#e6df9f" opacity="1.00" d=" M 305.75 639.18 C 302.48 626.22 297.59 611.89 302.90 598.86 C 311.94 605.42 310.82 617.48 312.94 627.22 C 313.72 632.11 314.97 636.90 316.10 641.72 C 317.21 648.11 321.11 654.63 318.46 661.14 C 309.63 657.42 308.64 647.09 305.75 639.18 Z" />
<path fill="#e6df9f" opacity="1.00" d=" M 308.70 701.62 C 319.48 711.80 325.45 726.66 338.56 734.44 C 346.20 738.83 350.17 746.95 355.32 753.73 C 356.04 755.39 356.61 757.12 357.21 758.84 C 347.85 756.27 337.89 753.83 328.27 756.49 C 308.76 763.30 287.60 762.33 267.79 768.00 C 261.31 770.37 256.22 777.26 248.55 774.85 C 239.53 772.54 227.28 778.01 220.77 769.57 C 251.09 768.66 281.10 760.93 311.39 757.88 C 309.73 750.58 299.50 749.09 300.10 741.06 C 299.87 732.10 293.63 725.14 290.91 716.94 C 299.32 723.66 304.94 733.64 314.90 738.40 C 315.29 725.74 307.98 714.28 308.70 701.62 Z" />
</g>
<g id="#9a6749ff">
<path fill="#9a6749" opacity="1.00" d=" M 35.95 471.95 C 41.51 431.36 47.04 389.78 62.38 351.48 C 52.86 384.77 43.10 418.42 40.59 453.05 C 30.77 513.92 41.54 576.12 57.75 635.03 C 64.08 648.12 75.76 629.71 81.06 623.91 C 88.62 607.73 82.79 589.97 84.23 572.97 C 86.64 550.99 84.97 528.82 83.38 506.84 L 83.28 505.94 C 80.03 481.87 75.94 456.38 85.17 433.08 C 87.16 427.25 90.37 421.96 93.86 416.92 C 94.86 415.82 95.91 414.78 96.98 413.76 C 98.28 413.81 99.58 413.86 100.88 413.92 C 93.10 424.15 90.22 436.96 86.89 449.11 C 84.57 498.74 95.77 548.58 90.55 598.35 C 90.38 608.65 91.58 619.24 88.14 629.20 C 87.18 623.00 88.78 616.84 88.56 610.63 C 83.16 616.48 84.95 626.22 78.26 631.26 C 71.58 635.78 65.83 641.55 61.35 648.27 C 46.93 610.46 41.22 569.90 35.82 530.05 C 36.60 510.69 36.29 491.31 35.95 471.95 Z" />
<path fill="#9a6749" opacity="1.00" d=" M 721.02 446.98 C 739.42 477.18 745.67 513.01 756.27 546.33 C 761.53 544.37 764.05 539.24 762.17 533.86 C 763.01 544.33 771.72 545.33 780.14 546.72 C 772.76 542.41 761.79 553.10 770.95 557.89 C 789.53 563.47 808.38 568.49 827.42 572.43 C 831.95 573.87 835.32 570.26 838.00 567.19 C 837.39 565.71 836.81 564.23 836.26 562.75 C 842.48 564.07 850.53 569.63 846.85 576.88 C 838.23 589.89 821.93 593.78 808.93 600.93 C 818.10 591.79 833.50 591.25 840.45 579.67 C 825.65 579.48 812.48 586.31 800.81 594.80 C 786.95 605.83 769.76 611.42 755.15 621.20 C 742.93 630.32 743.44 646.62 738.74 659.65 C 733.36 669.98 729.85 681.19 724.50 691.48 C 712.80 704.43 708.22 721.60 699.16 736.24 C 703.34 735.10 707.55 733.73 711.08 731.14 C 706.26 739.85 701.82 749.47 693.57 755.50 C 686.84 759.47 679.35 762.18 673.26 767.23 C 675.26 764.72 676.75 761.87 678.15 758.99 C 663.94 764.24 651.16 772.73 637.93 780.03 C 640.84 777.43 643.66 774.69 647.00 772.64 C 665.61 762.88 686.64 753.23 695.92 732.95 C 702.01 716.07 714.28 702.66 724.41 688.20 C 726.62 676.52 733.08 666.35 736.20 654.96 C 741.36 642.00 743.37 626.31 755.71 617.75 C 763.29 611.61 774.43 610.85 780.47 602.81 C 771.79 602.28 764.34 607.74 755.76 608.06 C 755.55 602.59 759.46 598.89 764.40 597.44 C 773.74 594.14 786.97 586.61 794.30 597.24 C 802.41 588.90 814.44 585.53 821.28 576.18 C 803.94 569.90 786.75 562.48 768.06 561.51 C 767.01 567.63 765.75 573.74 763.62 579.59 C 762.14 578.71 760.12 578.35 759.18 576.83 C 748.60 540.05 742.70 501.90 729.07 466.01 C 726.19 459.75 723.57 453.38 721.02 446.98 Z" />
</g>
<g id="#86482dff">
<path fill="#86482d" opacity="1.00" d=" M 708.84 393.50 C 716.11 379.25 723.73 364.06 738.48 356.03 C 737.24 361.10 735.85 366.15 733.95 371.02 C 727.73 383.15 721.62 395.34 715.22 407.34 C 712.93 420.58 723.99 431.06 730.94 441.05 C 744.53 470.86 747.80 504.36 762.17 533.86 C 764.05 539.24 761.53 544.37 756.27 546.33 C 745.67 513.01 739.42 477.18 721.02 446.98 C 720.41 446.21 719.77 445.48 719.09 444.79 C 709.45 437.24 701.10 428.34 692.53 419.79 C 694.28 415.12 699.44 411.79 702.32 407.48 C 709.48 406.44 707.69 398.72 708.84 393.50 Z" />
<path fill="#86482d" opacity="1.00" d=" M 550.61 473.21 C 568.54 474.99 582.09 487.59 594.66 499.31 C 606.80 521.77 592.08 546.87 573.31 560.20 C 573.90 562.12 574.39 564.08 574.94 566.02 C 550.93 565.29 530.27 541.44 532.45 517.63 C 531.53 500.56 542.49 486.94 550.61 473.21 M 577.64 510.00 C 578.01 518.92 574.76 528.06 568.18 534.19 C 561.15 539.23 552.11 536.51 544.16 536.33 C 544.60 540.29 546.05 544.11 548.87 547.01 C 549.45 547.83 550.14 548.54 550.95 549.17 C 563.97 562.87 578.17 543.74 585.16 533.14 C 594.24 525.99 590.11 509.33 577.64 510.00 Z" />
<path fill="#86482d" opacity="1.00" d=" M 770.95 557.89 C 761.79 553.10 772.76 542.41 780.14 546.72 C 799.08 551.30 817.44 557.70 836.26 562.75 C 836.81 564.23 837.39 565.71 838.00 567.19 C 835.32 570.26 831.95 573.87 827.42 572.43 C 808.38 568.49 789.53 563.47 770.95 557.89 Z" />
<path fill="#86482d" opacity="1.00" d=" M 800.81 594.80 C 812.48 586.31 825.65 579.48 840.45 579.67 C 833.50 591.25 818.10 591.79 808.93 600.93 C 782.74 616.31 756.93 635.13 743.47 663.26 C 742.15 674.60 734.31 683.56 732.89 694.98 C 724.82 706.50 716.74 718.11 711.08 731.14 C 707.55 733.73 703.34 735.10 699.16 736.24 C 708.22 721.60 712.80 704.43 724.50 691.48 C 729.85 681.19 733.36 669.98 738.74 659.65 C 743.44 646.62 742.93 630.32 755.15 621.20 C 769.76 611.42 786.95 605.83 800.81 594.80 Z" />
<path fill="#86482d" opacity="1.00" d=" M 523.28 657.00 C 527.35 640.11 547.57 642.49 560.53 645.48 C 579.54 657.60 591.69 681.26 584.56 703.61 C 575.51 711.30 560.73 719.07 550.88 708.16 C 545.94 699.15 534.64 705.14 527.30 707.40 C 524.41 730.35 552.82 750.44 574.13 742.34 C 589.35 733.47 593.43 712.51 609.90 705.36 C 610.77 708.42 611.55 711.50 612.26 714.61 C 609.80 714.33 607.34 714.03 604.88 713.73 C 596.08 724.64 591.05 739.01 579.03 747.07 C 564.53 750.86 549.70 747.99 535.43 746.38 C 521.53 755.95 526.02 732.28 519.76 726.30 C 509.02 723.16 497.66 716.11 496.00 704.01 C 494.02 691.63 484.45 683.02 477.42 673.40 C 490.31 673.55 501.32 685.77 509.64 695.09 C 508.80 697.11 507.96 699.13 507.13 701.16 C 510.63 705.08 513.84 709.76 518.84 711.89 C 521.92 709.70 512.06 704.69 516.16 701.38 C 525.38 698.57 535.42 701.14 544.64 697.85 C 539.91 683.18 528.65 671.25 523.28 657.00 M 537.17 653.47 C 525.79 657.26 543.88 669.53 548.62 666.73 C 547.28 661.27 542.34 655.61 537.17 653.47 M 565.19 700.05 C 563.05 705.06 567.09 711.19 572.39 707.37 C 576.08 702.53 569.67 698.51 565.19 700.05 Z" />
<path fill="#86482d" opacity="1.00" d=" M 616.14 693.28 C 618.21 668.95 644.11 644.64 668.94 657.09 C 679.89 664.90 683.33 680.60 679.98 693.07 C 677.81 700.59 668.39 694.29 664.93 700.38 C 666.25 702.46 668.77 704.66 667.42 707.36 C 650.77 708.12 635.29 701.31 624.41 688.74 C 621.99 690.81 619.22 692.43 616.14 693.28 M 658.93 685.96 C 650.44 687.02 641.75 686.28 633.47 684.16 C 632.14 694.01 645.14 696.54 652.19 699.37 C 662.72 697.56 675.79 689.59 672.59 676.91 C 666.50 677.47 665.04 685.46 658.93 685.96 Z" />
</g>
<g id="#c6c2b6ff">
<path fill="#c6c2b6" opacity="1.00" d=" M 547.97 470.11 C 573.95 473.00 601.47 492.28 604.20 519.95 C 605.25 528.17 613.76 531.83 619.56 536.44 C 627.22 541.40 632.68 531.04 638.66 527.83 C 648.81 517.44 636.22 503.05 637.15 490.82 C 647.64 511.68 656.29 533.76 663.60 555.90 C 656.98 573.96 633.02 576.53 624.27 593.67 C 617.14 586.28 609.39 594.34 602.64 597.70 C 590.97 604.14 576.25 596.14 571.15 584.86 C 567.29 578.16 567.63 567.95 559.33 564.77 C 539.11 553.84 525.66 531.74 529.49 508.38 C 520.01 521.16 527.55 536.87 529.21 550.79 C 528.38 550.89 526.73 551.08 525.90 551.18 C 517.41 543.35 518.51 531.19 514.87 521.12 C 511.49 511.31 512.59 498.71 521.56 492.21 C 522.82 493.76 524.06 495.35 525.33 496.92 C 533.00 488.09 547.56 483.65 547.97 470.11 M 550.61 473.21 C 542.49 486.94 531.53 500.56 532.45 517.63 C 530.27 541.44 550.93 565.29 574.94 566.02 C 574.39 564.08 573.90 562.12 573.31 560.20 C 592.08 546.87 606.80 521.77 594.66 499.31 C 582.09 487.59 568.54 474.99 550.61 473.21 Z" />
<path fill="#c6c2b6" opacity="1.00" d=" M 653.82 629.80 C 655.21 629.49 656.61 629.24 658.02 628.98 C 656.49 642.18 671.45 630.78 678.58 633.54 C 689.05 638.97 692.97 653.25 705.68 655.39 C 701.66 669.88 694.10 683.73 695.23 699.42 C 696.80 711.88 687.81 721.16 684.50 732.33 C 687.42 732.58 690.34 732.79 693.28 732.96 C 689.57 740.57 684.18 750.20 674.14 748.22 C 663.12 751.60 653.81 759.61 642.43 762.60 C 631.48 765.08 629.19 776.59 623.88 784.67 C 624.36 783.11 624.86 781.57 625.37 780.04 C 625.16 779.46 624.75 778.31 624.54 777.73 C 604.63 784.31 586.49 799.06 564.70 798.16 C 556.68 794.05 545.39 792.27 541.77 782.94 C 527.77 779.91 514.09 775.96 500.59 771.45 C 476.97 773.99 455.00 763.61 432.09 760.86 C 415.75 754.25 405.48 739.65 393.86 727.39 C 383.29 734.47 394.37 750.52 382.49 755.29 C 380.14 752.10 377.85 748.85 375.24 745.87 C 377.50 747.13 379.90 748.09 382.30 749.05 C 381.45 743.96 378.32 739.74 376.70 734.97 C 378.57 729.76 380.70 724.55 380.63 718.89 C 384.08 721.48 387.76 723.86 391.89 725.26 C 404.79 727.18 420.25 727.27 431.07 719.08 C 436.74 709.33 444.18 695.81 457.86 699.54 C 461.58 695.68 465.41 686.10 471.74 689.21 C 477.76 701.84 470.07 719.01 481.05 729.93 C 486.49 734.26 489.74 740.62 494.76 745.22 C 502.46 746.45 511.72 747.58 518.72 743.65 C 522.79 735.65 513.96 729.80 508.86 725.13 C 526.23 724.31 518.09 745.97 528.38 752.81 C 543.48 743.63 563.25 758.60 579.03 747.07 C 591.05 739.01 596.08 724.64 604.88 713.73 C 607.34 714.03 609.80 714.33 612.26 714.61 C 611.55 711.50 610.77 708.42 609.90 705.36 C 593.43 712.51 589.35 733.47 574.13 742.34 C 553.39 745.57 528.90 731.17 528.82 708.37 C 534.04 707.21 539.28 706.15 544.57 705.30 C 550.90 715.96 565.79 717.19 576.18 712.32 C 570.34 716.92 562.74 716.93 555.68 717.30 C 559.96 722.95 566.73 732.22 574.76 727.74 C 585.49 719.62 596.33 711.40 604.77 700.77 C 613.83 692.67 614.04 679.35 622.24 670.62 C 618.02 679.93 611.19 690.09 614.41 700.65 C 624.03 713.62 641.94 722.48 658.01 717.28 C 657.92 716.55 657.74 715.07 657.65 714.33 C 644.08 712.98 629.96 708.85 620.44 698.53 C 617.53 695.64 622.17 689.94 625.51 691.20 C 632.49 696.62 637.95 704.89 647.29 706.51 C 656.84 708.15 670.06 712.67 675.73 701.71 C 691.28 687.11 681.77 661.17 665.27 651.80 C 650.72 646.92 635.49 656.41 625.29 666.32 C 628.26 662.34 631.68 658.75 635.11 655.17 C 630.05 653.33 624.90 651.70 620.05 649.34 C 623.81 647.18 627.43 644.78 631.19 642.62 C 638.86 638.57 646.71 634.81 653.82 629.80 M 461.03 701.87 C 456.48 719.86 468.78 739.16 486.40 744.07 C 488.27 736.95 480.09 734.11 476.92 729.06 C 469.16 718.32 471.48 704.44 470.51 692.04 C 464.68 691.16 462.41 697.40 461.03 701.87 Z" />
<path fill="#c6c2b6" opacity="1.00" d=" M 552.34 826.47 C 568.89 824.10 585.19 819.93 600.10 812.20 C 600.75 812.04 602.06 811.73 602.71 811.57 C 600.59 813.31 598.63 815.23 596.65 817.13 C 614.99 816.67 633.39 813.65 651.68 816.34 C 684.57 814.49 717.75 813.37 750.52 817.36 C 723.27 826.69 692.61 822.10 664.00 822.67 C 640.21 822.19 616.50 826.33 592.70 824.32 C 583.48 823.99 572.92 821.91 565.05 828.04 C 585.59 831.19 606.55 828.13 627.26 829.22 C 609.36 830.90 590.94 827.70 573.37 832.04 C 589.18 837.52 606.54 833.55 623.00 834.66 C 640.17 834.14 658.61 837.03 674.90 831.21 C 671.59 830.26 668.25 829.48 664.85 829.04 C 676.79 829.88 689.07 827.53 700.75 830.82 C 697.03 832.74 693.07 834.33 688.86 834.61 C 652.62 836.70 616.30 836.76 580.00 836.69 C 563.06 838.98 548.74 829.14 532.19 828.22 C 530.66 830.45 528.90 832.52 527.39 834.77 C 524.61 833.10 522.28 830.83 520.45 828.18 C 512.87 827.72 505.29 827.33 497.75 826.39 C 506.89 826.34 517.24 824.63 525.15 830.34 C 532.65 823.21 543.48 830.90 552.34 826.47 M 600.07 819.90 C 600.10 820.61 600.14 822.04 600.16 822.75 C 613.34 822.20 627.06 825.57 639.76 820.87 C 639.80 820.14 639.86 818.67 639.89 817.94 C 626.73 817.63 612.77 815.56 600.07 819.90 Z" />
</g>
<g id="#a67f4aff">
<path fill="#a67f4a" opacity="1.00" d=" M 322.28 563.78 C 326.97 567.16 326.27 574.04 327.96 579.09 C 330.97 591.50 332.32 604.41 331.20 617.17 C 330.10 617.78 329.02 618.41 327.93 619.05 C 325.01 600.86 318.49 582.26 322.28 563.78 Z" />
<path fill="#a67f4a" opacity="1.00" d=" M 587.93 617.95 C 597.68 629.87 603.27 644.96 608.47 659.34 C 608.45 662.89 609.14 667.05 606.01 669.59 C 601.64 651.71 588.40 636.83 587.93 617.95 Z" />
<path fill="#a67f4a" opacity="1.00" d=" M 64.18 656.83 C 71.53 647.61 77.09 635.21 88.14 629.20 C 83.75 634.81 77.79 639.21 75.03 646.01 C 72.13 651.88 64.45 657.58 68.21 664.73 C 76.13 683.22 83.17 702.29 93.78 719.47 C 99.44 711.03 104.99 702.39 112.42 695.36 L 112.92 694.83 C 107.89 705.67 95.14 713.91 96.73 726.98 C 98.13 726.93 99.54 726.89 100.95 726.85 C 104.19 721.66 106.30 715.52 111.20 711.56 C 107.73 718.54 103.60 725.16 98.74 731.24 C 103.03 739.10 107.21 747.14 113.13 753.93 C 122.57 766.99 131.45 780.79 142.51 792.45 C 163.72 809.64 189.42 792.88 212.85 793.04 C 258.92 791.36 304.69 789.54 350.56 792.87 C 342.67 788.12 331.43 787.36 328.70 776.75 C 349.87 777.04 369.17 790.77 389.76 790.83 C 388.92 788.90 388.07 786.98 387.22 785.07 C 396.91 785.23 402.10 793.65 401.77 802.65 C 393.19 802.01 386.26 793.96 377.39 796.39 C 358.96 799.16 340.54 793.90 322.09 793.57 C 287.05 792.81 252.03 792.80 217.00 794.09 C 194.03 796.06 171.67 807.19 148.49 800.32 C 150.29 803.68 153.31 806.14 156.99 807.17 C 155.60 807.08 154.21 807.02 152.82 806.98 C 153.79 808.17 154.77 809.38 155.79 810.56 C 214.70 876.45 293.91 923.48 378.87 947.04 C 379.17 947.58 379.77 948.65 380.07 949.18 C 290.11 924.86 205.83 875.12 144.96 803.99 C 109.88 760.14 80.44 710.71 64.18 656.83 Z" />
</g>
<g id="#cbb948ff">
<path fill="#cbb948" opacity="1.00" d=" M 639.81 604.70 C 659.50 601.30 678.10 592.16 697.98 590.97 C 697.88 591.64 697.68 592.97 697.58 593.63 C 695.22 595.43 692.89 597.29 690.54 599.11 C 693.62 605.26 698.53 610.17 704.45 613.62 C 714.80 619.95 718.76 636.48 709.52 645.40 C 708.32 643.58 707.13 641.78 706.09 639.89 C 699.22 621.04 667.72 614.83 653.82 629.80 C 646.71 634.81 638.86 638.57 631.19 642.62 C 623.83 636.40 612.52 632.48 609.93 622.41 C 624.11 625.81 636.93 618.81 649.21 612.73 C 645.40 611.01 639.75 609.96 639.81 604.70 Z" />
</g>
<g id="#ccc59cff">
<path fill="#ccc59c" opacity="1.00" d=" M 578.96 605.25 C 584.67 607.03 589.52 611.05 595.63 611.62 C 596.68 609.16 597.78 606.71 598.82 604.24 C 596.96 611.12 602.07 616.61 604.83 622.35 C 600.36 619.82 590.16 608.82 587.93 617.95 C 588.40 636.83 601.64 651.71 606.01 669.59 C 609.14 667.05 608.45 662.89 608.47 659.34 C 612.42 651.26 605.02 644.20 605.77 636.36 C 610.14 638.90 612.92 643.21 615.89 647.15 C 614.79 646.78 613.68 646.43 612.58 646.11 C 613.75 650.03 615.12 653.88 616.61 657.69 C 614.73 658.77 612.85 659.86 610.99 660.97 C 614.11 669.37 607.63 677.18 600.06 679.79 C 591.87 677.07 593.78 664.60 585.62 661.43 C 577.07 658.32 575.35 648.43 573.77 640.60 C 576.16 640.56 578.57 640.53 580.97 640.50 C 578.86 632.23 574.77 624.62 573.03 616.24 C 573.61 615.86 574.76 615.10 575.34 614.72 C 579.14 618.86 582.31 623.54 586.21 627.60 C 588.14 619.19 581.13 612.81 578.96 605.25 M 577.96 624.34 C 583.55 641.61 589.21 658.95 596.46 675.60 C 597.63 679.01 600.96 677.23 603.19 676.07 C 594.65 659.27 590.96 640.24 580.83 624.27 C 580.11 624.28 578.68 624.32 577.96 624.34 Z" />
<path fill="#ccc59c" opacity="1.00" d=" M 653.82 629.80 C 667.72 614.83 699.22 621.04 706.09 639.89 C 707.30 649.45 706.47 660.11 712.81 668.12 C 720.20 677.87 710.14 688.39 707.76 698.07 C 713.64 694.48 718.12 689.16 723.57 685.00 C 723.78 685.80 724.20 687.40 724.41 688.20 C 714.28 702.66 702.01 716.07 695.92 732.95 C 686.64 753.23 665.61 762.88 647.00 772.64 C 641.27 772.01 640.20 767.24 642.43 762.60 C 653.81 759.61 663.12 751.60 674.14 748.22 C 684.18 750.20 689.57 740.57 693.28 732.96 C 690.34 732.79 687.42 732.58 684.50 732.33 C 687.81 721.16 696.80 711.88 695.23 699.42 C 694.10 683.73 701.66 669.88 705.68 655.39 C 692.97 653.25 689.05 638.97 678.58 633.54 C 671.45 630.78 656.49 642.18 658.02 628.98 C 656.61 629.24 655.21 629.49 653.82 629.80 Z" />
<path fill="#ccc59c" opacity="1.00" d=" M 378.87 947.04 C 488.23 978.84 607.52 964.10 709.20 914.12 C 653.64 945.09 589.33 960.85 526.12 964.91 C 507.82 968.33 488.99 967.31 470.75 964.04 C 440.01 963.81 409.86 956.29 380.07 949.18 C 379.77 948.65 379.17 947.58 378.87 947.04 Z" />
</g>
<g id="#b9a584f7">
<path fill="#b9a584" opacity="0.97" d=" M 469.16 638.21 C 476.08 647.08 474.26 660.14 482.87 668.07 C 488.13 675.87 497.09 679.13 503.92 685.05 C 510.33 700.48 527.64 698.76 541.23 696.35 C 535.35 682.42 526.24 669.84 520.43 656.01 C 528.64 635.96 557.37 637.62 571.09 650.94 C 581.02 662.44 591.36 675.77 588.92 692.03 C 591.10 701.66 584.08 708.47 576.18 712.32 C 565.79 717.19 550.90 715.96 544.57 705.30 C 539.28 706.15 534.04 707.21 528.82 708.37 C 528.90 731.17 553.39 745.57 574.13 742.34 C 552.82 750.44 524.41 730.35 527.30 707.40 C 534.64 705.14 545.94 699.15 550.88 708.16 C 560.73 719.07 575.51 711.30 584.56 703.61 C 591.69 681.26 579.54 657.60 560.53 645.48 C 547.57 642.49 527.35 640.11 523.28 657.00 C 528.65 671.25 539.91 683.18 544.64 697.85 C 535.42 701.14 525.38 698.57 516.16 701.38 C 512.06 704.69 521.92 709.70 518.84 711.89 C 513.84 709.76 510.63 705.08 507.13 701.16 C 507.96 699.13 508.80 697.11 509.64 695.09 C 501.32 685.77 490.31 673.55 477.42 673.40 C 484.45 683.02 494.02 691.63 496.00 704.01 C 497.66 716.11 509.02 723.16 519.76 726.30 C 526.02 732.28 521.53 755.95 535.43 746.38 C 549.70 747.99 564.53 750.86 579.03 747.07 C 563.25 758.60 543.48 743.63 528.38 752.81 C 518.09 745.97 526.23 724.31 508.86 725.13 C 492.07 713.49 492.94 690.16 476.97 677.99 C 470.80 673.70 474.28 665.70 471.46 659.80 C 469.63 652.85 464.48 645.13 469.16 638.21 Z" />
<path fill="#b9a584" opacity="0.97" d=" M 658.93 685.96 C 665.04 685.46 666.50 677.47 672.59 676.91 C 675.79 689.59 662.72 697.56 652.19 699.37 C 645.14 696.54 632.14 694.01 633.47 684.16 C 641.75 686.28 650.44 687.02 658.93 685.96 M 636.97 689.20 C 644.36 701.53 672.60 697.56 669.69 680.75 C 661.69 691.73 648.49 688.74 636.97 689.20 Z" />
<path fill="#b9a584" opacity="0.97" d=" M 214.44 804.40 C 269.36 795.76 324.94 801.35 379.68 808.32 C 409.84 813.09 439.23 823.37 470.00 823.68 C 497.49 821.65 524.86 826.42 552.34 826.47 C 543.48 830.90 532.65 823.21 525.15 830.34 C 517.24 824.63 506.89 826.34 497.75 826.39 C 478.70 826.43 459.39 828.07 440.73 823.19 C 363.98 805.52 284.21 796.31 205.81 807.85 C 189.42 812.42 172.47 809.82 155.79 810.56 C 154.77 809.38 153.79 808.17 152.82 806.98 C 154.21 807.02 155.60 807.08 156.99 807.17 C 176.18 809.41 195.50 807.84 214.44 804.40 Z" />
<path fill="#b9a584" opacity="0.97" d=" M 627.26 829.22 C 639.78 828.92 652.32 828.89 664.85 829.04 C 668.25 829.48 671.59 830.26 674.90 831.21 C 658.61 837.03 640.17 834.14 623.00 834.66 C 606.54 833.55 589.18 837.52 573.37 832.04 C 590.94 827.70 609.36 830.90 627.26 829.22 Z" />
</g>
</svg>
