<?xml version="1.0" encoding="UTF-8" ?>
<!DOCTYPE svg PUBLIC "-//W3C//DTD SVG 1.1//EN" "http://www.w3.org/Graphics/SVG/1.1/DTD/svg11.dtd">
<svg width="1067pt" height="1067pt" viewBox="0 0 1067 1067" version="1.1" xmlns="http://www.w3.org/2000/svg" style="width: 26px;height: 26px;">
<g id="#3370ffff">
<path fill="#3370ff" opacity="1.00" d=" M 524.30 0.00 L 541.68 0.00 C 619.85 1.23 697.76 19.62 767.95 54.15 C 831.32 85.17 888.39 128.95 934.87 182.04 C 970.96 223.20 1000.70 269.94 1022.61 320.12 C 1050.91 384.65 1065.85 454.87 1067.00 525.29 L 1067.00 541.74 C 1065.74 621.62 1046.54 701.21 1010.56 772.57 C 979.37 834.76 935.84 890.69 883.32 936.30 C 829.40 983.23 765.96 1019.20 697.93 1041.17 C 647.23 1057.64 594.04 1066.19 540.76 1067.00 L 525.33 1067.00 C 480.80 1066.19 436.34 1060.12 393.35 1048.40 C 336.65 1033.02 282.57 1008.09 233.99 975.05 C 181.45 939.36 135.34 894.23 98.53 842.47 C 56.49 783.48 26.67 715.82 11.67 644.95 C 4.41 611.03 0.68 576.40 0.00 541.73 L 0.00 525.27 C 1.06 463.09 12.74 401.05 35.04 342.97 C 60.45 276.41 99.48 215.12 148.89 163.79 C 199.73 110.85 261.58 68.50 329.42 40.43 C 391.06 14.79 457.58 1.27 524.30 0.00 M 313.79 263.48 C 320.90 269.66 328.68 275.06 335.90 281.12 C 395.85 329.52 449.42 385.79 494.81 448.05 C 514.20 474.68 532.45 502.19 548.60 530.91 C 550.87 529.89 552.35 527.80 554.13 526.15 C 570.97 509.32 587.95 492.63 604.89 475.90 C 630.85 449.89 662.51 429.54 697.12 417.14 C 682.43 365.82 657.91 317.21 624.68 275.38 C 621.45 271.16 617.39 267.46 612.38 265.51 C 607.33 262.92 601.55 263.49 596.08 263.46 C 501.98 263.47 407.88 263.42 313.79 263.48 M 727.98 429.46 C 690.10 439.13 654.30 457.89 625.85 484.85 C 613.22 496.89 600.99 509.33 588.51 521.51 C 573.70 536.08 559.29 551.07 543.69 564.80 C 530.76 576.31 517.05 586.93 502.84 596.81 C 495.02 602.46 486.63 607.28 478.69 612.73 C 513.70 628.15 549.57 641.64 586.20 652.68 C 602.23 657.30 618.26 662.49 634.98 663.96 C 661.32 666.73 688.59 663.60 712.94 652.84 C 741.28 640.86 765.37 619.64 781.55 593.54 C 788.41 582.69 793.83 571.03 799.64 559.60 C 806.85 545.18 814.10 530.78 821.33 516.36 C 827.71 504.06 833.22 491.31 840.42 479.45 C 848.60 465.77 858.10 452.89 868.58 440.89 C 824.57 421.99 774.50 418.90 727.98 429.46 M 191.20 436.15 C 191.25 526.43 191.37 616.72 191.36 707.00 C 191.41 711.01 191.14 715.07 191.89 719.04 C 193.51 725.73 197.56 731.83 203.27 735.73 C 242.75 762.03 286.87 781.34 332.96 792.58 C 378.88 803.34 426.64 805.88 473.50 800.75 C 510.72 796.80 547.26 787.20 581.79 772.79 C 637.77 749.65 688.57 713.90 728.76 668.54 C 693.43 685.28 652.51 690.07 614.33 681.48 C 594.95 676.98 575.89 671.20 556.97 665.07 C 485.40 641.60 416.65 609.40 353.18 568.80 C 294.27 531.09 239.64 486.63 191.20 436.15 Z" />
</g>
<g id="#ffffffff">
<path fill="#ffffff" opacity="1.00" d=" M 313.79 263.48 C 407.88 263.42 501.98 263.47 596.08 263.46 C 601.55 263.49 607.33 262.92 612.38 265.51 C 617.39 267.46 621.45 271.16 624.68 275.38 C 657.91 317.21 682.43 365.82 697.12 417.14 C 662.51 429.54 630.85 449.89 604.89 475.90 C 587.95 492.63 570.97 509.32 554.13 526.15 C 552.35 527.80 550.87 529.89 548.60 530.91 C 532.45 502.19 514.20 474.68 494.81 448.05 C 449.42 385.79 395.85 329.52 335.90 281.12 C 328.68 275.06 320.90 269.66 313.79 263.48 Z" />
<path fill="#ffffff" opacity="1.00" d=" M 727.98 429.46 C 774.50 418.90 824.57 421.99 868.58 440.89 C 858.10 452.89 848.60 465.77 840.42 479.45 C 833.22 491.31 827.71 504.06 821.33 516.36 C 814.10 530.78 806.85 545.18 799.64 559.60 C 793.83 571.03 788.41 582.69 781.55 593.54 C 765.37 619.64 741.28 640.86 712.94 652.84 C 688.59 663.60 661.32 666.73 634.98 663.96 C 618.26 662.49 602.23 657.30 586.20 652.68 C 549.57 641.64 513.70 628.15 478.69 612.73 C 486.63 607.28 495.02 602.46 502.84 596.81 C 517.05 586.93 530.76 576.31 543.69 564.80 C 559.29 551.07 573.70 536.08 588.51 521.51 C 600.99 509.33 613.22 496.89 625.85 484.85 C 654.30 457.89 690.10 439.13 727.98 429.46 Z" />
<path fill="#ffffff" opacity="1.00" d=" M 191.20 436.15 C 239.64 486.63 294.27 531.09 353.18 568.80 C 416.65 609.40 485.40 641.60 556.97 665.07 C 575.89 671.20 594.95 676.98 614.33 681.48 C 652.51 690.07 693.43 685.28 728.76 668.54 C 688.57 713.90 637.77 749.65 581.79 772.79 C 547.26 787.20 510.72 796.80 473.50 800.75 C 426.64 805.88 378.88 803.34 332.96 792.58 C 286.87 781.34 242.75 762.03 203.27 735.73 C 197.56 731.83 193.51 725.73 191.89 719.04 C 191.14 715.07 191.41 711.01 191.36 707.00 C 191.37 616.72 191.25 526.43 191.20 436.15 Z" />
</g>
</svg>
