<?xml version="1.0" encoding="UTF-8" ?>
<!DOCTYPE svg PUBLIC "-//W3C//DTD SVG 1.1//EN" "http://www.w3.org/Graphics/SVG/1.1/DTD/svg11.dtd">
<svg width="1067pt" height="1067pt" viewBox="0 0 1067 1067" version="1.1" xmlns="http://www.w3.org/2000/svg">
<g id="#00d6b9ff">
<path fill="#00d6b9" opacity="1.00" d=" M 245.08 198.87 C 245.91 195.95 248.87 193.77 251.93 194.00 C 373.95 194.00 495.97 194.00 618.00 194.00 C 630.90 194.18 643.55 200.26 651.85 210.14 C 696.76 265.76 729.42 331.19 747.01 400.48 L 746.36 400.70 C 714.71 410.74 684.85 426.38 658.54 446.65 C 644.15 457.40 631.48 470.18 618.74 482.79 C 595.89 505.29 573.23 527.97 550.26 550.35 C 475.97 415.78 372.11 297.69 248.13 206.82 C 245.52 205.20 244.12 201.84 245.08 198.87 Z" />
</g>
<g id="#133c9aff">
<path fill="#133c9a" opacity="1.00" d=" M 746.36 400.70 C 785.78 388.28 827.85 384.31 868.87 389.44 C 900.60 393.37 931.69 402.58 960.39 416.70 C 939.85 436.99 922.50 460.48 909.02 486.01 C 890.43 523.35 871.68 560.62 852.94 597.89 C 850.03 603.26 847.33 608.78 844.19 614.01 C 842.77 614.62 842.15 616.08 841.30 617.25 C 825.61 640.77 804.97 661.05 780.78 675.75 C 735.42 703.84 678.54 710.68 627.12 697.70 C 587.21 687.36 548.05 674.28 509.64 659.32 C 486.26 650.05 462.99 640.45 440.38 629.41 C 480.36 608.19 517.38 581.44 550.26 550.35 C 573.23 527.97 595.89 505.29 618.74 482.79 C 631.48 470.18 644.15 457.40 658.54 446.65 C 684.85 426.38 714.71 410.74 746.36 400.70 Z" />
</g>
<g id="#3370ffff">
<path fill="#3370ff" opacity="1.00" d=" M 108.50 401.05 C 108.16 394.96 116.68 391.76 120.51 396.41 C 211.17 493.32 320.33 572.85 440.38 629.41 C 462.99 640.45 486.26 650.05 509.64 659.32 C 548.05 674.28 587.21 687.36 627.12 697.70 C 678.54 710.68 735.42 703.84 780.78 675.75 C 804.97 661.05 825.61 640.77 841.30 617.25 C 842.15 616.08 842.77 614.62 844.19 614.01 C 797.26 698.18 725.50 768.23 640.25 813.17 C 581.72 844.17 516.95 863.28 450.98 869.08 C 375.94 875.81 299.38 865.68 228.92 838.90 C 193.94 825.68 160.47 808.47 129.34 787.73 C 116.71 779.66 108.74 764.97 108.71 749.99 C 108.68 633.68 108.57 517.36 108.50 401.05 Z" />
</g>
</svg>
